<svg id="e9a7bc85-4f5e-4b33-80f2-cfe353df163f" data-name="Ebene 1" xmlns="http://www.w3.org/2000/svg" viewBox="0 0 159.33 144.75999"><title>logo</title><path d="M81.84766,8.12919q18.24609,0,27.46484,7.4126,9.21533,7.4121,9.21777,22.2373,0,14.825-2.94629,21.57227-2.94873,6.74853-12.44921,13.87451-9.50538,7.12792-11.97364,10.92871a15.02459,15.02459,0,0,0-2.4707,8.3623v5.89258H68.35352q-5.89308-6.46-5.89209-17.2959,0-6.84228,12.06933-16.53564,12.06666-9.69287,14.82471-13.39941a14.71583,14.71583,0,0,0,2.75586-9.02784q0-11.21264-16.15528-11.21386a124.80891,124.80891,0,0,0-23.37792,2.28076l-3.99122.76025L47.25635,14.78153A90.89235,90.89235,0,0,1,81.84766,8.12919ZM64.17236,139.65263V109.053H91.541v30.59961Z" fill="#00aca9"/></svg>