<svg id="b0d38e14-7fbc-414a-b1aa-adc456126c07" data-name="svg2" xmlns="http://www.w3.org/2000/svg" viewBox="0 0 499.11656 699.33765"><title>01s</title><path id="ac0e1a3e-8af6-485b-a9bc-3579d6012721" data-name="path23601" d="M488.6569,450.0003c.04971,131.806-106.75976,238.69621-238.56566,238.74593S11.39525,581.98637,11.34554,450.18037v-.18007c-.04972-131.806,106.75976-238.69621,238.56562-238.74593s238.696,106.75985,238.74574,238.56586Q488.65693,449.91028,488.6569,450.0003Z" transform="translate(-0.44172 -0.22082)" fill="#fff"/><path id="ff30c59b-7f92-4079-96a0-69c891ac089f" data-name="path24490" d="M245.394,1.18531V8.90675h-7.85238v7.92358h7.89286v9.05553a8.97684,8.97684,0,0,0-4.89762.7681,8.40639,8.40639,0,0,0-2.95476,3.88094s-4.60274-1.67482-8.01428-.40427-5.62619,5.45757-5.62619,5.45757-4.48164-4.26045-9.35-3.19369c-5.66541,1.24142-9.14762,8.5704-9.14762,8.5704-.00016,0-4.80086-3.19294-9.269-1.21279-6.85281,3.037-7.52857,11.23854-7.52857,11.23854s-10.20806-1.27785-13.4381,1.17236c-3.22418,2.44572-2.59047,12.896-2.59047,12.896a15.54012,15.54012,0,0,0-6.27381.12128,10.08113,10.08113,0,0,0-4.49286,3.15326s-2.34683-4.8916-9.10714-4.8916c-6.911,0-10.3619,7.8023-10.3619,7.8023-.00016,0-9.58306-1.89625-12.87143,0-3.33786,1.92475-3.80476,9.58106-3.80476,9.58106-.00016,0-9.04279-1.58295-12.669,2.10217s-1.8619,12.613-1.8619,12.613-9.56377-.948-11.37381,2.749c-2.02113,4.12846-.64762,14.35137-.64762,14.35137s-7.40224.63612-8.94524,6.38737c-1.2901,4.80885,3.15714,12.69389,3.15714,12.69389s-6.44148,2.78943-7.97381,6.62993,1.86191,8.73211,1.86191,8.73211l-3.03572,15.68544s-3.61455,6.40194,2.83334,15.362c6.31373,8.77375,16.39285,2.99155,16.39285,2.99155a19.00036,19.00036,0,0,0,7.69048,3.27454,30.47954,30.47954,0,0,0,9.63333-.48511s-1.3588,4.40647.40476,7.03419,6.67857,3.47667,6.67857,3.47667l2.18572,5.17458-1.37619,6.26609,6.39524,5.498,2.22619,8.95152s46.63837-26.17625,112.6857-26.17625c61.42515,0,112.64524,25.94526,112.64524,25.94526l2.26666-8.72053,6.35476-5.498-1.33571-6.26609,2.18571-5.17458s4.915-.849,6.67857-3.47667.36429-7.03419.36429-7.03419a30.797,30.797,0,0,0,9.67381.48511,19.0002,19.0002,0,0,0,7.69047-3.27454s10.079,5.78224,16.39286-2.99155c6.44773-8.9601,2.79286-15.362,2.79286-15.362l-2.99524-15.68544s3.39415-4.8916,1.8619-8.73211-7.9738-6.62993-7.9738-6.62993,4.40668-7.885,3.11666-12.69389c-1.54284-5.75129-8.90476-6.38737-8.90476-6.38737s1.37366-10.22295-.64762-14.35137c-1.80988-3.697-11.37381-2.749-11.37381-2.749s1.76435-8.92792-1.8619-12.613-12.66905-2.10217-12.66905-2.10217S373.763,73.169,370.425,71.24429c-3.28837-1.89629-12.87143,0-12.87143,0-.00016,0-3.45091-7.8023-10.3619-7.8023-6.76016,0-9.10714,4.8916-9.10714,4.8916a10.08087,10.08087,0,0,0-4.49286-3.15326,15.54,15.54,0,0,0-6.27381-.12128s.6337-10.45031-2.59048-12.896c-3.23-2.45021-13.43809-1.17236-13.43809-1.17236s-.67576-8.20159-7.52857-11.23854c-4.468-1.98015-9.269,1.21279-9.269,1.21279s-3.48222-7.329-9.14762-8.5704c-4.86821-1.06676-9.35,3.19369-9.35,3.19369s-2.21465-4.187-5.62619-5.45757c-3.4117-1.27055-8.01428.40427-8.01428.40427A8.62737,8.62737,0,0,0,259.3583,26.654a8.97684,8.97684,0,0,0-4.89762-.7681V16.83033h7.89286V8.90675h-7.81191V1.18531Z" transform="translate(-0.44172 -0.22082)" fill="#fff" fill-rule="evenodd"/><path id="fe54a280-44f7-4259-9b15-296ca4b53193" data-name="path19002" d="M223.85193,86.2301a76.63984,76.63984,0,0,0-16.47381,1.73833c-22.08843,4.96669-42.5,20.53662-42.5,20.53662s-1.02012.068-1.619.12128a5.95844,5.95844,0,1,1-11.33333,2.58729,5.99943,5.99943,0,0,1,.081-.92981,108.29136,108.29136,0,0,0-19.99523,5.57885c-15.61225,6.23719-29.5881,17.58548-29.5881,17.58548l13.4381,32.34113-7.89286,12.00664,25.45952,7.84272S190.23356,157.756,250.48526,157.987s123.93809,28.58147,123.93809,28.58147l6.9619-8.77253,13.88333,1.3745-6.03095-15.24076,8.3381-22.19409-4.41191-10.75343a57.73164,57.73164,0,0,0-20.60238-14.67478c-7.7065-3.27523-17.32515-5.35319-24.08333-6.54908a5.81238,5.81238,0,0,1,.32381,1.77876,5.97025,5.97025,0,1,1-11.94048,0,5.92349,5.92349,0,0,1,1.82143-4.2852c-4.58193-3.675-19.90849-15.13041-38.08809-19.2834-21.74148-4.96666-47.35714,2.30431-47.35714,2.30431A110.69908,110.69908,0,0,0,223.85193,86.2301Zm25.90476,3.71923a5.963,5.963,0,1,1-5.99048,5.98311A5.96928,5.96928,0,0,1,249.75669,89.94933Zm.32381,22.59836a11.48111,11.48111,0,1,1-11.49524,11.4811A11.48958,11.48958,0,0,1,250.0805,112.54769Zm81.7619,9.45978a11.48111,11.48111,0,1,1-11.49524,11.4811A11.48958,11.48958,0,0,1,331.8424,122.00747ZM168.44,122.16918a11.4811,11.4811,0,1,1-11.49524,11.48109A11.48956,11.48956,0,0,1,168.44,122.16918Z" transform="translate(-0.44172 -0.22082)" fill="#e1233b" stroke="#173980" fill-rule="evenodd"/><path id="a4c9285f-3e94-4883-ad11-8bf374cef281" data-name="path9070" d="M245.43578.97082V8.69225H237.5834v7.92358h7.89285v9.05551a8.97728,8.97728,0,0,0-4.89762.7681,8.40712,8.40712,0,0,0-2.95476,3.88094s-4.60272-1.6748-8.01428-.40427-5.62619,5.45757-5.62619,5.45757-4.48172-4.26043-9.35-3.19369c-5.6654,1.24142-9.14762,8.5704-9.14762,8.5704s-4.80095-3.19291-9.269-1.21279c-6.85279,3.037-7.52857,11.23854-7.52857,11.23854s-10.208-1.27783-13.43809,1.17237c-3.22419,2.44571-2.59048,12.896-2.59048,12.896a15.54042,15.54042,0,0,0-6.27381.12128,10.081,10.081,0,0,0-4.49286,3.15326s-2.34691-4.8916-9.10714-4.8916c-6.911,0-10.3619,7.8023-10.3619,7.8023s-9.583-1.89625-12.87143,0c-3.33792,1.92477-3.80476,9.58106-3.80476,9.58106s-9.04276-1.583-12.66905,2.10217-1.8619,12.613-1.8619,12.613-9.56385-.948-11.37381,2.749c-2.02124,4.12846-.64762,14.35137-.64762,14.35137s-7.4023.63612-8.94524,6.38737c-1.29015,4.80885,3.15714,12.6939,3.15714,12.6939s-6.44149,2.78942-7.97381,6.62993,1.86191,8.7321,1.86191,8.7321l-3.03572,15.68545s-3.61454,6.402,2.83334,15.362c6.31378,8.77379,16.39285,2.99155,16.39285,2.99155a19.00045,19.00045,0,0,0,7.69048,3.27454,30.47952,30.47952,0,0,0,9.63333-.48511s-1.35885,4.40648.40476,7.03419,6.67858,3.47667,6.67858,3.47667l2.18571,5.17458-1.37619,6.2661,6.39524,5.498,2.22619,8.95156S183.96215,193.923,250.00958,193.923c61.42509,0,112.64524,25.94526,112.64524,25.94526l2.26666-8.72057,6.35476-5.498-1.33571-6.2661,2.18571-5.17458s4.915-.849,6.67858-3.47667.36428-7.03419.36428-7.03419a30.79514,30.79514,0,0,0,9.67381.48511,19.00061,19.00061,0,0,0,7.69048-3.27454s10.079,5.78224,16.39283-2.99155c6.44785-8.96009,2.79286-15.362,2.79286-15.362l-2.99524-15.68545s3.39423-4.8916,1.86191-8.7321-7.97381-6.62993-7.97381-6.62993,4.4068-7.885,3.11666-12.6939c-1.54287-5.75125-8.90474-6.38737-8.90474-6.38737s1.3736-10.22293-.64762-14.35137c-1.80994-3.697-11.37381-2.749-11.37381-2.749s1.76439-8.9279-1.8619-12.613-12.66905-2.10217-12.66905-2.10217-.46684-7.65629-3.80476-9.58106c-3.28843-1.89625-12.87143,0-12.87143,0s-3.45089-7.8023-10.3619-7.8023c-6.76024,0-9.10714,4.8916-9.10714,4.8916a10.08049,10.08049,0,0,0-4.49286-3.15326,15.5404,15.5404,0,0,0-6.27381-.12128s.63369-10.45029-2.59048-12.896C321.539,49.49829,311.331,50.77614,311.331,50.77614s-.67582-8.20159-7.52857-11.23854c-4.46815-1.98011-9.269,1.21279-9.269,1.21279s-3.48218-7.329-9.14762-8.5704c-4.86831-1.06674-9.35,3.19369-9.35,3.19369s-2.21462-4.187-5.62619-5.45757-8.01428.40427-8.01428.40427a8.62709,8.62709,0,0,0-2.99524-3.88094,8.97725,8.97725,0,0,0-4.89762-.7681V16.61583h7.89286V8.69225h-7.81191V.97082ZM232.52387,35.98008a6.20662,6.20662,0,0,1,3.52143.80852,6.07417,6.07417,0,0,1,2.22619,8.32784,6.11814,6.11814,0,1,1-10.60476-6.10438A6.06873,6.06873,0,0,1,232.52387,35.98008Zm33.83809,0a6.12969,6.12969,0,0,1,5.74762,9.13636,6.1358,6.1358,0,1,1-5.74762-9.13636Zm-50.67618,2.42558a6.11319,6.11319,0,1,1-4.89762,3.07241A6.18121,6.18121,0,0,1,215.68578,38.40566Zm67.75714,0a6.20658,6.20658,0,0,1,3.52142.80853,6.11074,6.11074,0,1,1-3.52142-.80853ZM198.362,44.63133a6.10451,6.10451,0,1,1-4.89762,3.032A6.07645,6.07645,0,0,1,198.362,44.63133Zm102.04047,0a6.11759,6.11759,0,1,1-4.89762,3.032A6.07645,6.07645,0,0,1,300.40244,44.63133Zm-50.83809,6.99376a6.11319,6.11319,0,1,1-4.89762,3.07241A6.18126,6.18126,0,0,1,249.56435,51.62509ZM182.3334,55.3039a6.10451,6.10451,0,1,1-4.89762,3.032A6.0764,6.0764,0,0,1,182.3334,55.3039Zm134.01666,0a6.10451,6.10451,0,1,1-4.89762,3.032A6.0764,6.0764,0,0,1,316.35006,55.3039Zm-55.85714,1.69791c4.9545-.07211,25.86715.50631,43.43095,14.27052,20.07662,15.73345,23.47621,44.71162,23.47619,44.7116a11.16918,11.16918,0,0,0-3.92619,2.22346,14.02805,14.02805,0,0,0-2.75238,4.00221s-12.34522-.5316-12.34524,13.179c0,8.811,11.17145,12.20878,11.17143,12.20878s-5.26517,5.98563-10.2,5.90225c-5.35223-.08752-10.8476-9.82362-10.84762-9.82362s6.96837-17.01951-9.02619-17.01951c-13.26767,0-10.64522,16.08971-10.64524,16.08971s-5.1453,5.84574-10.72619,5.57884c-7.74734-.37323-9.39044-9.9449-9.39047-9.9449s14.00478.99647,14.00476-10.22788a12.76278,12.76278,0,0,0-10.07857-13.09815s.51462-4.04264-1.74048-6.46823-7.28569-3.23411-7.28571-3.23411,4.78255-2.62035,5.74761-6.4278c.99292-3.91723-1.09281-8.61082-1.09285-8.61082V82.713a11.11623,11.11623,0,0,0,1.82143-5.37671,11.84027,11.84027,0,0,0-1.82143-5.498V63.99558c.043-.12873.87537-2.75753,1.13333-3.71923a10.78906,10.78906,0,0,0,0-3.23412S259.78514,57.01211,260.49292,57.00181Zm-23.59762.04042c1.08019-.0343,1.97136-.00969,2.59048,0,.70756.0111,1.09287,0,1.09285,0a10.79047,10.79047,0,0,0,0,3.23412c.258.9617,1.09039,3.5905,1.13334,3.71923V71.8383a11.84126,11.84126,0,0,0-1.82143,5.498A11.11668,11.11668,0,0,0,241.712,82.713v7.60017s-2.08575,4.69359-1.09286,8.61082c.96508,3.80745,5.70716,6.4278,5.70714,6.4278s-4.99011.80853-7.24524,3.23411-1.74045,6.46823-1.74047,6.46823A12.76284,12.76284,0,0,0,227.262,128.15228c0,11.22435,14.00478,10.22788,14.00476,10.22788s-1.64312,9.57167-9.39048,9.9449c-5.58087.2669-10.72616-5.57884-10.72619-5.57884s2.62247-16.08971-10.64523-16.08971c-15.99454,0-9.02616,17.01951-9.02619,17.01951s-5.49538,9.7361-10.84762,9.82362c-4.93483.08338-10.2-5.90225-10.2-5.90225s11.17146-3.39778,11.17143-12.20878c0-13.71061-12.34521-13.179-12.34524-13.179a14.0271,14.0271,0,0,0-2.75238-4.00221,11.16883,11.16883,0,0,0-3.92619-2.22346s3.39958-28.97815,23.47619-44.7116C211.42316,59.22865,229.334,57.28244,236.8953,57.04223ZM152.70483,68.19992a6.20659,6.20659,0,0,1,3.52143.80853,6.11074,6.11074,0,1,1-3.52143-.80853Zm193.55713,0a6.20663,6.20663,0,0,1,3.52143.80853,6.11074,6.11074,0,1,1-3.52143-.80853ZM169.7453,69.73613a6.10266,6.10266,0,0,1,5.70715,9.13636,6.11815,6.11815,0,1,1-5.70715-9.13636Zm159.1119,0a6.12969,6.12969,0,0,1,5.74762,9.13636,6.11814,6.11814,0,1,1-10.60476-6.10438A6.0687,6.0687,0,0,1,328.8572,69.73613ZM249.56435,71.0702a6.10451,6.10451,0,1,1-4.89762,3.032A6.07627,6.07627,0,0,1,249.56435,71.0702ZM136.67626,74.78943a6.20668,6.20668,0,0,1,3.52143.80852,6.11077,6.11077,0,1,1-3.52143-.80852Zm226.14046,0a6.20656,6.20656,0,0,1,3.52143.80852,6.11077,6.11077,0,1,1-3.52143-.80852ZM161.48816,86.2301a6.03976,6.03976,0,0,1,3.481.7681,6.22408,6.22408,0,1,1-3.481-.7681Zm175.78809,0a6.03981,6.03981,0,0,1,3.481.7681,6.22408,6.22408,0,1,1-3.481-.7681Zm-216.79047.36384a6.20659,6.20659,0,0,1,3.52143.80853,6.07417,6.07417,0,0,1,2.22619,8.32783,6.11814,6.11814,0,1,1-10.60476-6.10438A6.06878,6.06878,0,0,1,120.48578,86.59394Zm258.11665,0a6.20645,6.20645,0,0,1,3.52143.80853,6.07416,6.07416,0,0,1,2.22619,8.32783,6.11814,6.11814,0,1,1-10.60476-6.10438A6.06863,6.06863,0,0,1,378.60243,86.59394ZM249.56435,89.98976a6.12969,6.12969,0,0,1,5.74762,9.13636,6.13581,6.13581,0,1,1-5.74762-9.13636ZM150.84292,91.2834a17.02233,17.02233,0,0,0,.97143,5.61927,8.70047,8.70047,0,0,0,2.95476,3.55752s-8.66188,5.23517-8.6619,10.51087c0,7.64146,7.5286,11.03641,7.52857,11.03641v5.53842s-9.19964,4.0409-6.31428,14.79606c3.80317,14.17619,16.63574,8.40869,16.63571,8.40869s-.66654,9.589-8.94524,11.80452c-7.29833,1.9532-10.68569-6.91292-10.68571-6.91292s-6.61984-11.61525-15.82619-6.30652c-11.66293,6.72531-2.18569,17.10037-2.18572,17.10037s-1.94139,7.45263-6.1119,10.06618-9.269.40426-9.269.40426a14.26174,14.26174,0,0,0,5.70715-11.279c0-5.79941-6.03093-11.92579-6.031-11.92579s-1.43678-20.46067,8.62143-36.06035S150.843,91.2834,150.84292,91.2834Zm198.33333,0s21.5537,10.75834,31.6119,26.358,8.62147,36.06035,8.62143,36.06035-6.59758,6.12638-6.59762,11.92579c0,7.43278,6.27383,11.279,6.27381,11.279s-5.09854,2.20932-9.26905-.40426-6.11188-10.06616-6.1119-10.06618,9.51771-10.37506-2.14524-17.10037c-9.20634-5.30873-15.82617,6.30652-15.82619,6.30652s-3.38735,8.86612-10.68572,6.91292c-8.27866-2.21554-8.94521-11.80452-8.94523-11.80452s12.83257,5.7675,16.63571-8.40869c2.88537-10.75516-6.31427-14.79606-6.31429-14.79606v-5.53842s7.48812-3.39495,7.4881-11.03641c0-5.2757-8.66186-10.51087-8.6619-10.51087a17.10408,17.10408,0,0,0,3.11666-4.4469A11.46575,11.46575,0,0,0,349.17625,91.2834ZM108.2215,100.37934a6.20663,6.20663,0,0,1,3.52143.80853,6.13981,6.13981,0,1,1-3.52143-.80853Zm282.969,0a6.11759,6.11759,0,1,1-4.89762,3.032A6.07626,6.07626,0,0,1,391.19053,100.37934Zm-233.87142,4.8916a6.12646,6.12646,0,1,1-4.89761,3.0724A6.18123,6.18123,0,0,1,157.31911,105.27094Zm184.93571,0a6.11318,6.11318,0,1,1-4.89762,3.0724A6.18122,6.18122,0,0,1,342.25482,105.27094ZM249.281,113.31579a10.39006,10.39006,0,1,1-8.29761,5.17458A10.31509,10.31509,0,0,1,249.281,113.31579Zm-148.91189,4.20435a6.20661,6.20661,0,0,1,3.52143.80853,6.11074,6.11074,0,1,1-3.52143-.80853Zm298.9976,0a6.13605,6.13605,0,1,1-4.89762,3.07241A6.1813,6.1813,0,0,1,399.36672,117.52014Zm-231.88808,5.41714a10.31525,10.31525,0,0,1,5.90952,1.37449,10.39148,10.39148,0,1,1-5.90952-1.37449Zm163.56427,0a10.31524,10.31524,0,0,1,5.90953,1.37449,10.39149,10.39149,0,1,1-5.90953-1.37449ZM95.79531,136.23756a6.20671,6.20671,0,0,1,3.52143.80853,6.13982,6.13982,0,1,1-3.52143-.80853Zm307.49758,0a6.11759,6.11759,0,1,1-4.8976,3.032A6.07653,6.07653,0,0,1,403.29289,136.23756Zm-153.56664,3.67881a27.93729,27.93729,0,0,0,3.92619,8.16613,36.23766,36.23766,0,0,0,7.04286,6.83206H238.7572a46.98268,46.98268,0,0,0,6.31429-6.83206A48.59894,48.59894,0,0,0,249.72625,139.91637Zm-35.13333,8.89381a20.94788,20.94788,0,0,0,3.88571,3.51709,42.92538,42.92538,0,0,0,5.22143,3.032l-23.92142,2.70856a64.77032,64.77032,0,0,0,5.62619-4.36605,8.08549,8.08549,0,0,0,2.59047-4.32562Zm69.98333,0,6.63809.566a8.32517,8.32517,0,0,0,2.631,4.32562c2.74631,2.413,5.54523,4.36605,5.54523,4.36605l-23.92142-2.70856a40.888,40.888,0,0,0,5.30238-3.032A18.83562,18.83562,0,0,0,284.57625,148.81018Zm-112.2,1.09151a28.7341,28.7341,0,0,0,5.95,6.87249,36.22708,36.22708,0,0,0,8.54047,4.77032l-21.20952,5.70012a47.55207,47.55207,0,0,0,4.331-8.247A48.59615,48.59615,0,0,0,172.37626,149.90169Zm154.65951,0a50.54916,50.54916,0,0,0,2.42857,9.09594,48.97526,48.97526,0,0,0,4.29048,8.247l-21.169-5.70012a36.227,36.227,0,0,0,8.54048-4.77032A28.03379,28.03379,0,0,0,327.03577,149.90169ZM97.81912,157.21887a10.40445,10.40445,0,1,1-9.269,5.215A10.45406,10.45406,0,0,1,97.81912,157.21887Zm304.86663,0a10.4052,10.4052,0,1,1-9.30951,5.215A10.4537,10.4537,0,0,1,402.68575,157.21887ZM141.5334,167.12334a21.63116,21.63116,0,0,0,4.61429,2.466,42.71209,42.71209,0,0,0,5.78809,1.69791l-22.54524,8.32784s2.23465-2.57991,4.331-5.57884a8.33755,8.33755,0,0,0,1.53809-4.81075Zm216.87142,0,6.31428,2.10217a8.10984,8.10984,0,0,0,1.49762,4.81075,66.55174,66.55174,0,0,0,4.41191,5.57884l-22.58572-8.32784a42.71112,42.71112,0,0,0,5.7881-1.69791A20.66253,20.66253,0,0,0,358.40482,167.12334ZM214.6334,177.998a6.36717,6.36717,0,1,1-6.35476,6.38738A6.37838,6.37838,0,0,1,214.6334,177.998Zm68.36428,0a6.36722,6.36722,0,1,1-6.39524,6.38738A6.37836,6.37836,0,0,1,282.99768,177.998ZM149.30483,196.18993a6.34695,6.34695,0,1,1-6.35476,6.34694A6.34384,6.34384,0,0,1,149.30483,196.18993Zm199.58808,0a6.34695,6.34695,0,1,1-6.35476,6.34694A6.37847,6.37847,0,0,1,348.89291,196.18993Z" transform="translate(-0.44172 -0.22082)" fill="#fabc01" stroke="#173980" stroke-width="1.5" fill-rule="evenodd"/><g id="b3829976-c944-4d4a-a5da-17ef6b8b53c3" data-name="g18995"><g id="b98be431-d1c2-4456-bb76-a1538fb825a9" data-name="g18983"><polygon id="afb93286-35ef-4dab-ad9e-e745ad792593" data-name="rect13628" points="249.681 175.122 269.134 182.545 249.681 189.968 230.228 182.545 249.681 175.122" fill="#e1233b" stroke="#173980" stroke-width="1.50017"/><polygon id="a0fe0ada-738c-40cb-9677-d0f66c115915" data-name="rect13630" points="319.273 183.909 336.14 196.108 315.426 198.249 298.56 186.051 319.273 183.909" fill="#173980" stroke="#173980" stroke-width="1.50017"/><polygon id="bcec04b6-3e8d-408a-8642-47c47c0cde44" data-name="rect13632" points="179.843 183.909 162.977 196.108 183.691 198.249 200.557 186.051 179.843 183.909" fill="#173980" stroke="#173980" stroke-width="1.50017"/></g><path id="ace1d96d-884a-4ecf-88d9-2eb3967d2dbc" data-name="rect18089" d="M134.4608,206.38138l-4.89762,4.932,4.89762,4.89159,4.89762-4.89159Zm231.07856,0-4.9381,4.932,4.9381,4.89159,4.89762-4.89159Z" transform="translate(-0.44172 -0.22082)" fill="#e1233b" stroke="#173980" stroke-width="1.5"/></g><path id="a95a0837-65e0-469f-8ffc-85f775714efa" data-name="path19046" d="M128.834,197.779c58.32494-33.72456,174.7499-39.18067,242.51087,0" transform="translate(-0.44172 -0.22082)" fill="none" stroke="#173980" stroke-width="2.97714"/><path id="adefe689-0e47-4e12-b27a-48c0eedb4e8b" data-name="path20831" d="M250.0202,202.51161C113.08372,202.51161,1.94172,313.517,1.94172,450.285S113.08388,698.05846,250.0202,698.05846c136.93648,0,248.03808-111.00538,248.03808-247.77345S386.95684,202.51161,250.0202,202.51161Zm0,32.09856c119.1921,0,215.9,96.62938,215.9,215.67484S369.2123,665.9599,250.0202,665.9599,34.07982,569.33052,34.07982,450.285,130.8281,234.61017,250.0202,234.61017Z" transform="translate(-0.44172 -0.22082)" fill="#fabc01" stroke="#173980" stroke-width="3"/><g id="ab0895ac-884d-45f3-a935-83edf660b6cc" data-name="g21723"><path id="e957bc3c-5280-4345-99aa-619a40ca786b" data-name="path20836" d="M77.333,382.72156,331.55083,641.18985s35.0139-17.32944,58.51022-38.02643a148.184,148.184,0,0,0,34.49635-45.41349L150.10653,281.355Z" transform="translate(-0.44172 -0.22082)" fill="#173980" stroke="#173980" stroke-width="1.00397" fill-rule="evenodd"/><path id="fa3e75f2-6269-432f-9e9f-d4c0a817251b" data-name="path1945" d="M351.84286,273.11622l-48.5487,48.489a140.16928,140.16928,0,0,0-40.22256-8.99877c-1.51546-.10993-3.06992-.22017-4.58537-.28121a141.537,141.537,0,0,0-61.621,11.44933l-49.99661-49.9352a203.69216,203.69216,0,0,0-74.3313,74.52113c-44.2044,76.47-33.32176,169.649,20.31236,233.6869l27.834-28.24169C55.01037,492.40016,71.1981,378.60782,143.93236,316.463l23.49,24.54576a136.28547,136.28547,0,0,0-30.20711,32.13847c-41.96376,62.42421-24.1267,146.50147,39.82034,187.68871a140.23453,140.23453,0,0,0,38.41251,17.23425v36.99942h28.43739V582.891c43.20175,2.84845,86.64161-14.16862,115.59967-48.16754l-23.20847-25.59026c-22.15692,28.81062-57.52625,43.0319-92.3912,39.97223V521.26547h40.62468V496.59919H243.88547V471.93291h40.62468V451.12324H215.44808v91.434a105.30289,105.30289,0,0,1-19.5079-9.84241c-48.03886-30.941-61.45-94.11277-29.92559-141.00757a102.34041,102.34041,0,0,1,25.05862-25.91164l57.51827,60.17929,60.85679-63.63418.724.44191a102.71242,102.71242,0,0,1,32.70089,33.70522l26.1045-22.6978a136.58836,136.58836,0,0,0-35.75792-36.31647L353.331,316.463c72.68043,62.09881,88.91322,175.78459,23.40954,237.22212L406.22376,583.132a205.73585,205.73585,0,0,0,21.23752-30.12982c56.556-97.83741,22.94269-223.07814-75.01514-279.56461C352.24842,273.32364,352.04069,273.22948,351.84286,273.11622ZM253.74,345.95008c2.275.01852,4.52064.116,6.79766.28121a105.981,105.981,0,0,1,15.76712,2.33l-27.311,27.27753-25.74244-25.71078A106.69963,106.69963,0,0,1,253.74,345.95008Z" transform="translate(-0.44172 -0.22082)" fill="#fabc01" stroke="#173980" stroke-width="4"/></g></svg>