<svg id="ab60bf2a-7aa5-4432-bf53-d1ba61831c2a" data-name="Layer 1" xmlns="http://www.w3.org/2000/svg" viewBox="0 0 475.35059 475.35055"><title>02s</title><path d="M491.34769,256.48831c0,131.27339-106.4161,237.67575-237.6758,237.67575-131.26659,0-237.67479-106.40236-237.67479-237.67575,0-131.2612,106.4082-237.6748,237.67479-237.6748,131.2597,0,237.6758,106.4136,237.6758,237.6748" transform="translate(-15.9971 -18.81351)" fill="#dea600"/><path d="M483.418,256.48831c0,126.88869-102.85751,229.74609-229.74611,229.74609C126.7813,486.2344,23.9224,383.377,23.9224,256.48831c0-126.8906,102.8589-229.7495,229.74949-229.7495,126.8886,0,229.74611,102.8589,229.74611,229.7495" transform="translate(-15.9971 -18.81351)" fill="#153d8a"/><path d="M417.39649,256.48831a163.729,163.729,0,1,1-163.7246-163.7334,163.7147,163.7147,0,0,1,163.7246,163.7334" transform="translate(-15.9971 -18.81351)" fill="#dea600"/><path d="M412.44339,256.48831a158.772,158.772,0,1,1-158.7715-158.7725,158.77723,158.77723,0,0,1,158.7715,158.7725" transform="translate(-15.9971 -18.81351)" fill="#fff"/><path d="M117.6279,393.4648c1.7574,1.6758,6.0786,5.793,6.0786,5.793l4.1426-4.3633-12.3569-11.7812-1.5899,1.6679L97.3091,402.1758l6.3003,5.9961s5.3213-5.5801,7.2676-7.6133c1.6269,1.5449,5.5307,5.2656,5.5307,5.2656l4.1465-4.3515s-3.8984-3.7188-5.5234-5.2754c1.0312-1.086,1.5551-1.6368,2.5971-2.7325" transform="translate(-15.9971 -18.81351)" fill="#dea600"/><path d="M147.4312,413.3301a13.00473,13.00473,0,0,0-14.8086-10.5449,14.66878,14.66878,0,0,0-11.6661,16.4296,12.99645,12.99645,0,0,0,14.8145,10.5215,14.07462,14.07462,0,0,0,9.0874-5.8945,14.30462,14.30462,0,0,0,2.7603-8.3281,12.68689,12.68689,0,0,0-.1875-2.1836m-17.7457,9.2402c-2.8876-2.043-.5039-6.3144,1.1783-8.6621,1.6777-2.3672,4.9311-6.0273,7.8188-3.9863,3.0142,2.1562.1983,6.8144-1.1543,8.7051C136.1719,420.5391,132.7051,424.7246,129.6855,422.5703Z" transform="translate(-15.9971 -18.81351)" fill="#dea600"/><path d="M166.8555,419.9258c-6.6499-3.3653-14.3418-.6074-17.8745,6.3945a14.078,14.078,0,0,0-.9761,10.7988,13.00106,13.00106,0,0,0,16.228,8.1836,13.99636,13.99636,0,0,0,8.0962-7.1777c3.5474-7.0137,1.189-14.834-5.4736-18.1992M159.5,439.3848a2.94659,2.94659,0,0,1-2.3604-.2422,3.32332,3.32332,0,0,1-1.7827-3.2149,13.55759,13.55759,0,0,1,1.6504-5.5371c1.3125-2.5937,3.9756-6.6914,7.1372-5.0957a2.92513,2.92513,0,0,1,1.586,1.75c.5293,1.5957-.0034,4.2168-1.4278,7.0254C162.8838,436.875,161.0898,438.8594,159.5,439.3848Z" transform="translate(-15.9971 -18.81351)" fill="#dea600"/><path d="M180.5894,429.5547l-1.2242,3.5078s3.1299,1.0977,4.0801,1.4121c-1.1982,3.4258-6.7197,19.1875-6.7197,19.1875l8.1992,2.875s5.5308-15.748,6.7256-19.1738c.9556.334,4.0874,1.4219,4.0874,1.4219l1.9873-5.6622-16.373-5.7441-.7627,2.1758" transform="translate(-15.9971 -18.81351)" fill="#dea600"/><path d="M214.63089,437.1621l-11.0796-2.3398-.4742,2.2539-4.9516,23.5156,11.2764,2.3906a9.53572,9.53572,0,0,0,7.33-1.0156,8.03572,8.03572,0,0,0,3.3853-5.1563,8.374,8.374,0,0,0,.1875-1.746,7.029,7.029,0,0,0-1.4131-4.25,7.15731,7.15731,0,0,0,2.5527-4.209,7.50654,7.50654,0,0,0,.1529-1.5176c0-3.0098-1.7188-6.832-6.9663-7.9258m-3.0494,17.9531a2.56463,2.56463,0,0,1-.7407,1.5137,2.93612,2.93612,0,0,1-2.0346.0723s-.4263-.0938-.9297-.1934c.3598-1.6973.6006-2.8262.9516-4.5254.482.1133,1.0977.2344,1.0977.2344a2.03047,2.03047,0,0,1,1.7329,2.1641A3.3081,3.3081,0,0,1,211.58149,455.1152Zm-.7573-12.5859a3.29011,3.29011,0,0,1,1.9634.9941,1.41116,1.41116,0,0,1,.1875.7754,3.71985,3.71985,0,0,1-.0757.6778c-.1489.6914-.3511,1.6464-2.2681,1.2519,0,0-.2387-.0605-.5678-.1328C210.36869,444.6719,210.51369,443.9609,210.82419,442.5293Z" transform="translate(-15.9971 -18.81351)" fill="#dea600"/><path d="M235.08589,440.9922l-12.0351,24.6445,6.8725.5274s1.8599-3.9258,2.6026-5.4903c1.4536.1211,2.91111.2227,4.3359.3379.5327,1.6465,1.8765,5.8242,1.8765,5.8242l9.144.711L237.665,435.877l-2.57911,5.1152" transform="translate(-15.9971 -18.81351)" fill="#dea600"/><path d="M262.22269,460.6641c-.1524-3.6016-.8438-19.9981-.8438-19.9981l-8.6836.3652,1.09771,26.3145,17.40229-.7207-.2598-6.3164s-6.2167.2656-8.7128.3555" transform="translate(-15.9971 -18.81351)" fill="#dea600"/><path d="M286.043,458.1426c-.55861-3.5586-3.09961-19.7715-3.09961-19.7715l-2.27739.3652-6.31831.9844,4.0781,26.0293,17.2148-2.7051-.9863-6.2441s-6.1406.9687-8.61129,1.3418" transform="translate(-15.9971 -18.81351)" fill="#dea600"/><path d="M335.87889,440.6367a5.50706,5.50706,0,0,1-3.4746,5.0215,4.21116,4.21116,0,0,1-3.3457-.0098,8.77087,8.77087,0,0,1-4.1934-4.9004c-1.1054-2.7734-1.33-5.125-.6054-6.7812a5.02448,5.02448,0,0,1,2.9668-2.6211c1.6172-.6406,3.1523-.0508,5.2558,1.1895l1.9297,1.1367,3.2051-5.0528-1.9024-1.25a12.60909,12.60909,0,0,0-11.5703-1.2714,13.66422,13.66422,0,0,0-7.5918,7.291,14.037,14.037,0,0,0,.0215,10.8574,13.44884,13.44884,0,0,0,17.416,7.584c4.9395-1.9727,7.7344-5.7246,8.0899-10.8496l.1621-2.2871-6.291-.4668-.0723,2.4101" transform="translate(-15.9971 -18.81351)" fill="#dea600"/><path d="M356.15039,433.4492c-1.7793-3.1621-9.7695-17.498-9.7695-17.498l-2.002,1.1289-5.5918,3.123,12.8516,22.9942L366.834,434.709l-3.07621-5.5195s-5.4394,3.0312-7.6074,4.2597" transform="translate(-15.9971 -18.81351)" fill="#dea600"/><path d="M373.05079,397.9863l-1.8633,1.3633-3.2637,2.4004,10.666,14.5391a1.71738,1.71738,0,0,1,.4454,1.3515,3.71047,3.71047,0,0,1-1.5743,2.0625,2.73,2.73,0,0,1-1.8515.4258,2.03311,2.03311,0,0,1-1.3731-.9023l-10.541-14.375-7.0254,5.1425,10.4903,14.3028a8.68464,8.68464,0,0,0,5.7461,3.7129,11.029,11.029,0,0,0,8.082-2.4434c5.5-4.0234,5.4101-9.3613,3.00971-12.6328l-10.94721-14.9473" transform="translate(-15.9971 -18.81351)" fill="#dea600"/><path d="M405.05469,392.7012a7.21457,7.21457,0,0,0-5.7051-2.3184,7.10851,7.10851,0,0,0-2.0117-4.4844c-2.1973-2.2675-7.1094-4.0351-11.63089.3672l-8.13471,7.8672,18.33,18.9238,8.2774-8.0234a9.46575,9.46575,0,0,0,3.2519-6.6484,7.936,7.936,0,0,0-2.3769-5.6836m-13.84769-.6387a1.67759,1.67759,0,0,1,.60749,1.1055,2.16316,2.16316,0,0,1-.8438,1.4726s-.1719.1739-.4062.4082c-1.0274-1.0664-1.5118-1.5664-2.5528-2.6347C389.84379,390.7305,390.60549,391.4492,391.207,392.0625Zm4.33989,6.5156a2.21862,2.21862,0,0,1,3.3242.2539,2.46627,2.46627,0,0,1,.8437,1.4395v.0156a2.96771,2.96771,0,0,1-1.0683,1.7266s-.3164.3066-.6914.6601c-1.1992-1.2402-2.0098-2.0722-3.211-3.3047C395.09959,399.0156,395.54689,398.5781,395.54689,398.5781Z" transform="translate(-15.9971 -18.81351)" fill="#dea600"/><path d="M117.5713,391.0234c.7168.6914,6.0688,5.795,6.0688,5.795l1.7647-1.8614-9.8609-9.4043-.3969.416L99.7554,402.1152l3.7915,3.6192s6.5581-6.8731,7.2641-7.625c.7168.6816,5.5415,5.2773,5.5415,5.2773l1.7681-1.8535s-4.8247-4.5918-5.5415-5.2754c.6397-.6699,4.3579-4.5723,4.9922-5.2344" transform="translate(-15.9971 -18.81351)" fill="#fff"/><path d="M141.1582,406.4375a11.01264,11.01264,0,0,0-8.2397-1.9551,12.96489,12.96489,0,0,0-10.2579,14.4375,11.25775,11.25775,0,0,0,12.8257,9.1074,12.38206,12.38206,0,0,0,7.9639-5.1718,12.7454,12.7454,0,0,0,2.4409-7.3418,11.82763,11.82763,0,0,0-.1582-1.9004,11.04985,11.04985,0,0,0-4.5747-7.1758m-2.2256,13.1973c-1.6543,2.3144-5.959,7.3984-10.2436,4.3476-4.2696-3.0312-.8804-8.7617.7666-11.0898,1.6523-2.3281,5.959-7.4024,10.2231-4.3711C143.9648,411.5801,140.585,417.3145,138.9326,419.6348Z" transform="translate(-15.9971 -18.81351)" fill="#fff"/><path d="M166.0762,421.4746c-5.7696-2.918-12.4546-.4902-15.5552,5.6406a12.37307,12.37307,0,0,0-.8784,9.4766,11.30755,11.30755,0,0,0,14.0517,7.0762,12.38753,12.38753,0,0,0,7.1036-6.3164c3.0917-6.1289,1.0644-12.961-4.7217-15.877m-9.7139,19.2012c-4.6724-2.3477-2.1855-8.5313-.895-11.0703,1.2866-2.5508,4.7842-8.2168,9.4492-5.8457a4.64088,4.64088,0,0,1,2.4663,2.7539c.9155,2.7988-.5698,6.416-1.54,8.3379-.9649,1.9082-3.0034,5.2539-5.8047,6.1718A4.60531,4.60531,0,0,1,156.3623,440.6758Z" transform="translate(-15.9971 -18.81351)" fill="#fff"/><path d="M182.2266,430.1211l-.6617,1.873s3.2647,1.1485,4.0826,1.4356c-.3623,1.0254-6.7256,19.1719-6.7256,19.1719l4.9463,1.7382s6.3686-18.1464,6.7251-19.1738c.8178.2852,4.0825,1.4258,4.0825,1.4258l.8525-2.4102-13.1196-4.6054-.1821.5449" transform="translate(-15.9971 -18.81351)" fill="#fff"/><path d="M214.28169,438.8457l-9.3906-1.9824-.1265.5703-4.5898,21.8379,9.5815,2.0117a7.79663,7.79663,0,0,0,6.0308-.7715,6.23076,6.23076,0,0,0,2.6377-4.0547,7.12084,7.12084,0,0,0,.1523-1.3847,5.57365,5.57365,0,0,0-2.6376-4.6856,5.53943,5.53943,0,0,0,3.93351-5.3164c0-2.1875-1.14891-5.2871-5.59131-6.2246m-3.28269,1.9336a4.85922,4.85922,0,0,1,3.22759,1.7969,3.06268,3.06268,0,0,1,.478,1.7226,5.077,5.077,0,0,1-.1177,1.0254c-.6103,2.9082-2.9595,2.877-4.31,2.582,0,0-1.4302-.2949-2.2593-.4687.1933-.8945,1.2832-6.0801,1.4707-6.9727C210.08939,440.5859,210.999,440.7793,210.999,440.7793Zm-.72211,9.748a3.70337,3.70337,0,0,1,3.0893,3.9454,5.17134,5.17134,0,0,1-.09719,1.0058,3.83473,3.83473,0,0,1-1.48871,2.5918,4.36349,4.36349,0,0,1-3.3286.3262s-1.7076-.3653-2.6231-.5469c.1968-.9375,1.4741-6.9883,1.667-7.9101C208.27689,450.1016,210.27689,450.5273,210.27689,450.5273Z" transform="translate(-15.9971 -18.81351)" fill="#fff"/><path d="M236.64309,441.752l-10.9234,22.3593,3.1465.2344s2.3125-4.8594,2.6177-5.4805c.665.0508,6.0117.4668,6.668.5176.2094.6406,1.8769,5.8262,1.8769,5.8262l5.418.418L237.334,440.4727l-.69091,1.2793m-1.1988,8.9882c.5279,1.6895,1.544,4.9453,1.8804,6.0078-1.0786-.08-3.564-.2734-4.6318-.3535C233.18209,455.3887,234.67089,452.3281,235.44429,450.7402Z" transform="translate(-15.9971 -18.81351)" fill="#fff"/><path d="M260.56449,462.4648c-.043-1.0878-.8457-19.998-.8457-19.998l-.5567.0215-4.6758.1914.961,22.875,13.955-.5918-.123-2.8555s-7.707.3242-8.7148.3574" transform="translate(-15.9971 -18.81351)" fill="#fff"/><path d="M284.60939,460.1367c-.1739-1.0781-3.11139-19.7949-3.11139-19.7949l-.55851.0898-4.6153.7325,3.5469,22.6132,13.79691-2.1777-.44531-2.8262s-7.627,1.1973-8.6133,1.3633" transform="translate(-15.9971 -18.81351)" fill="#fff"/><path d="M337.59769,440.6758a7.2168,7.2168,0,0,1-4.55469,6.5996,5.902,5.902,0,0,1-4.666-.041,10.34909,10.34909,0,0,1-5.125-5.8438c-1.26961-3.2031-1.47471-6.0078-.58791-8.1054a6.73408,6.73408,0,0,1,3.9238-3.5352c2.5117-1.0059,4.8184.1406,6.7695,1.2988l.4883.2852,1.40431-2.2051-.47071-.3164a10.89683,10.89683,0,0,0-9.9902-1.1094,11.92289,11.92289,0,0,0-6.6504,6.3672,12.32176,12.32176,0,0,0,.041,9.5234,11.71562,11.71562,0,0,0,15.1777,6.629c4.3301-1.7383,6.6797-4.879,6.9942-9.3633l.041-.5782-2.7637-.1933-.0312.5879" transform="translate(-15.9971 -18.81351)" fill="#fff"/><path d="M355.48049,435.7969c-.5391-.9453-9.77149-17.4864-9.77149-17.4864l-.50781.2832-4.0664,2.2793,11.1523,19.9688,12.1914-6.8047-1.3847-2.5s-6.75,3.7598-7.6133,4.2598" transform="translate(-15.9971 -18.81351)" fill="#fff"/><path d="M372.67379,400.3965l-.4707.3457-1.86909,1.373,9.64839,13.1446a3.45471,3.45471,0,0,1,.7617,2.6328,5.41324,5.41324,0,0,1-2.2539,3.1953,4.39053,4.39053,0,0,1-3.1347.748,3.77865,3.77865,0,0,1-2.52149-1.5839l-9.52541-12.9922-4.2188,3.1113,9.4629,12.9004a6.97808,6.97808,0,0,0,4.61531,3.0312c2.81829.4258,5.46289-1.1406,6.79289-2.1132,4.5664-3.3575,4.627-7.5567,2.6543-10.2286l-9.9414-13.5644" transform="translate(-15.9971 -18.81351)" fill="#fff"/><path d="M403.81249,393.9023a5.599,5.599,0,0,0-6.3848-1.3457,5.25514,5.25514,0,0,0,.2969-1.666,5.40986,5.40986,0,0,0-1.6289-3.8027c-1.47269-1.5137-5.2871-3.3867-9.1894.4062l-6.8926,6.6797,15.9179,16.4317,7.0469-6.834a7.715,7.715,0,0,0,2.7266-5.4082,6.20564,6.20564,0,0,0-1.8926-4.461m-10.2793-.7148a3.94893,3.94893,0,0,1-1.3516,2.6855s-1.05659,1.0274-1.6562,1.6153c-.6406-.6602-4.332-4.461-4.9629-5.1348.4277-.414,1.1016-1.0547,1.1016-1.0547,2.1543-2.0976,4.04491-2.2383,5.7812-.4375A3.33019,3.33019,0,0,1,393.53319,393.1875Zm4.38481,11.9258c-.65241-.6719-4.95321-5.1231-5.61331-5.7949.56831-.5469,2.041-1.9805,2.041-1.9805,2.8086-2.707,5.65631.1621,5.77731.2949a3.88371,3.88371,0,0,1,1.32039,2.6387v.0332a4.44866,4.44866,0,0,1-1.5957,2.9609S398.47659,404.5859,397.918,405.1133Z" transform="translate(-15.9971 -18.81351)" fill="#fff"/><path d="M148.0767,99.91411l-9.6075,2.5913,1.1031,3.4409a10.65488,10.65488,0,0,1-3.1265,11.3921,8.27788,8.27788,0,0,1-6.2017,2.1557c-3.5014-.2353-7.4531-2.5014-10.5669-6.0654-3.6704-4.2036-5.5009-8.251-5.2675-11.68071a9.66515,9.66515,0,0,1,3.7109-6.74169c2.5772-2.2568,5.8447-2.1689,10.2783-1.29l3.2881.6504,2.1265-9.2012-3.3101-.8066a22.0481,22.0481,0,0,0-19.834,4.604c-10.3701,9.0742-11.2158,23.8926-1.9668,34.4702a23.58934,23.58934,0,0,0,33.2276,2.395c7.001-6.1152,9.4399-13.9394,7.0615-22.602l-.915-3.312" transform="translate(-15.9971 -18.81351)" fill="#dea600"/><path d="M174.165,51.72851l-9.8129,4.6206s5.4775,11.60889,7.3613,15.6104c-2.7993,1.3159-5.5103,2.5971-8.3115,3.9204-1.8897-3.9976-7.3706-15.6118-7.3706-15.6118l-12.9209,6.1001,19.6777,41.7397,12.9321-6.0967s-6.0967-12.9101-8.0576-17.0957c2.8008-1.31051,5.5103-2.5913,8.3169-3.9131,1.9668,4.1744,8.0557,17.0865,8.0557,17.0865l12.9287-6.1006-19.6724-41.73-3.1265,1.4702" transform="translate(-15.9971 -18.81351)" fill="#dea600"/><path d="M217.91549,77.58741c-.6303-3.1079-1.27-6.2695-1.8916-9.3735,3.9922-.8033,14.5996-2.94491,14.5996-2.94491l-1.8657-9.271s-10.61279,2.14511-14.6084,2.95221c-.5752-2.8418-1.0513-5.229-1.63039-8.0669,4.14649-.8364,15.49809-3.1304,15.49809-3.1304l-1.87109-9.2671-3.39651.6817-26.11279,5.2807,9.12939,45.2373,29.7481-6.0141-1.86919-9.2617s-11.55561,2.3286-15.72951,3.1777" transform="translate(-15.9971 -18.81351)" fill="#dea600"/><path d="M260.10939,37.41211l-14.3062-.2974-.0713,3.4498-.8935,42.686,30.0288.6304.21481-9.9952s-11.52931-.248-15.74221-.3344c.1211-5.6485.7696-36.1392.7696-36.1392" transform="translate(-15.9971 -18.81351)" fill="#dea600"/><path d="M306.46679,60.68511c-3.7109-2.7256-4.7969-3.8194-4.4219-5.30811.1836-.772,1.0254-3.23689,3.6914-2.57669,1.6055.4116,3.2012,1.2568,3.9121,4.709l.7813,3.832,9.44731-3.1924-.58791-2.9741c-1.16209-5.8413-6.1016-10.813-12.3028-12.3623a16.46239,16.46239,0,0,0-12.5468,1.6816,14.41326,14.41326,0,0,0-6.64649,8.9327c-2.37111,9.4604,4.00579,14.0151,8.22069,17.03319,4.3242,3.09131,5.4218,4.30071,4.7617,6.88331a3.03458,3.03458,0,0,1-1.4258,1.895,3.88984,3.88984,0,0,1-2.834.4629c-2.2715-.5586-3.2539-1.6324-4.2109-4.5694l-1.1602-3.5214-9.47649,3.8764.91789,3.0088c1.7774,5.8467,6.0176,9.5317,12.961,11.2705,7.8008,1.9522,17.2656-1.6357,19.625-11.0039,2.457-9.8686-4.2617-14.8144-8.7051-18.0771" transform="translate(-15.9971 -18.81351)" fill="#dea600"/><path d="M340.59569,85.29791c3.6406,1.8398,13.291,6.7197,13.291,6.7197l4.2676-8.438s-9.6582-4.8799-13.2871-6.7144c1.29881-2.5879,2.4004-4.7641,3.6973-7.3466,3.7656,1.9023,14.1171,7.1333,14.1171,7.1333l4.2559-8.438-26.8613-13.5738-1.5528,3.0747-19.2675,38.1094,27.0859,13.6802,4.2715-8.4326s-10.5254-5.3174-14.3281-7.2324c1.42381-2.8326,2.8867-5.709,4.3105-8.5415" transform="translate(-15.9971 -18.81351)" fill="#dea600"/><path d="M394.09179,89.60791l-43.041,22.2715,8.2344,7.16059s7.1035-3.77679,9.6855-5.13329c1.9199,1.6724,4.75,4.1338,6.6387,5.7749-.9258,2.7461-3.5567,10.4673-3.5567,10.4673l11.3438,9.87009,18.4023-54.26309-7.707,3.852" transform="translate(-15.9971 -18.81351)" fill="#dea600"/><path d="M146.4644,102.72221l-5.0728,1.3789.3716,1.1484a12.90858,12.90858,0,0,1-3.8067,13.8276,10.54924,10.54924,0,0,1-7.8647,2.7237c-4.1577-.2793-8.5801-2.7754-12.1494-6.8574-4.0806-4.67241-6.104-9.2911-5.836-13.3589a12.04317,12.04317,0,0,1,4.4996-8.315c3.645-3.187,8.2343-2.60451,12.2412-1.81051l1.101.21341,1.1104-4.8086-1.103-.2754a19.76878,19.76878,0,0,0-17.7715,4.1133c-9.374,8.2104-10.1275,21.6186-1.7446,31.2114a21.2882,21.2882,0,0,0,29.9819,2.1763c6.3647-5.5821,8.5044-12.3882,6.3481-20.2515l-.3051-1.1157" transform="translate(-15.9971 -18.81351)" fill="#fff"/><path d="M175.145,53.80181l-7.7197,3.6503s6.499,13.7906,7.354,15.6045c-1.6523.7832-10.8223,5.1099-12.4858,5.8872-.8526-1.8159-7.3482-15.6064-7.3482-15.6064l-8.7749,4.1338,17.7149,37.5654,8.769-4.1284s-7.1919-15.2446-8.0576-17.0898c1.6631-.7828,10.8222-5.0987,12.4853-5.8853.8643,1.8398,8.0581,17.0938,8.0581,17.0938l8.7578-4.1377-17.7143-37.5708-1.0386.4834" transform="translate(-15.9971 -18.81351)" fill="#fff"/><path d="M216.10689,80.30031c-.3603-1.8047-2.4355-12.083-2.79589-13.8877,1.92089-.3862,14.59769-2.9482,14.59769-2.9482l-.9595-4.7457s-12.6728,2.5508-14.605,2.9424c-.351-1.77-2.1796-10.813-2.5307-12.581,1.93551-.397,15.4887-3.1265,15.4887-3.1265l-.9609-4.7475-24.9897,5.0434,8.2197,40.7158,25.2285-5.0932-.9595-4.7476s-13.7817,2.7808-15.7334,3.1758" transform="translate(-15.9971 -18.81351)" fill="#fff"/><path d="M257.75389,39.67141l-9.688-.21-.0215,1.14359L247.186,80.99171l25.43309.5386.1133-5.3911s-13.7676-.2906-15.7402-.3326c.05081-2.1543.7617-36.1352.7617-36.1352" transform="translate(-15.9971 -18.81351)" fill="#fff"/><path d="M306.29489,50.57231c3.08011.7705,4.8594,2.8291,5.6133,6.4736l.2617,1.2739,5.0528-1.7075-.1914-.9966c-.9981-4.977-5.2559-9.2304-10.6055-10.57371a14.14821,14.14821,0,0,0-10.7969,1.41891,12.16829,12.16829,0,0,0-5.6016,7.5284c-1.9902,7.9345,3.18171,11.6308,7.3301,14.59569,4.1992,3.00341,6.7305,5.05271,5.6524,9.31151a5.26275,5.26275,0,0,1-2.4785,3.3193,6.19448,6.19448,0,0,1-4.57429.72219c-3.06251-.76809-4.63861-2.41509-5.83591-6.08939l-.3887-1.1743-5.2461,2.13969.30471,1.00681c1.52539,5.0107,5.22849,8.1885,11.32619,9.7139,6.6992,1.6728,14.8164-1.3579,16.8164-9.3369,2.084-8.36281-3.4063-12.4102-7.8477-15.6582-3.7714-2.7842-6.0488-4.64461-5.2754-7.7212.6778-2.7496,2.9551-5.1299,6.4844-4.2461" transform="translate(-15.9971 -18.81351)" fill="#fff"/><path d="M347.55079,66.42921c1.7676.8892,14.1015,7.1221,14.1015,7.1221l2.1954-4.3267-22.75-11.4932-.5215,1.0259-18.2168,36.0508,22.9629,11.605,2.1875-4.3247s-12.5371-6.33941-14.3125-7.2403c.8281-1.6464,5.5586-10.99311,6.3808-12.6396,1.75.8838,13.2871,6.7139,13.2871,6.7139l2.1993-4.3267s-11.5489-5.82471-13.2989-6.7139c.8145-1.6064,4.9727-9.8462,5.7852-11.4526" transform="translate(-15.9971 -18.81351)" fill="#fff"/><path d="M395.15039,91.65771,355.125,112.37211l4.47269,3.8891s8.4882-4.4995,9.6894-5.1357c.9961.8696,8.0313,6.9902,9.00591,7.8393-.42391,1.2647-3.56841,10.4566-3.56841,10.4566l7.5957,6.604,15.4649-45.603-2.6348,1.2353m-21.2285,17.084c1.8926-.9795,6.7304-3.4922,9.6797-5.0269-1.0977,3.1358-2.9082,8.3003-3.60159,10.3096C378.46479,112.68071,375.459,110.06881,373.92189,108.74171Z" transform="translate(-15.9971 -18.81351)" fill="#fff"/><path d="M367.22069,250.25241c-3.2832-8.6943-14.5859-12.4712-25.2715-8.43841a23.65912,23.65912,0,0,0-10.5918,7.78611c7.0547-20.1357,35.793-24.4092,35.793-43.14211,0-31.39889-44.5899-22.604-38.1016.00541,0-10.2578,16.32621-12.1382,16.32621,0,0,12.1401-28.46681,20.10059-28.46681,40.6103,0,22.6079,22.6133,24.6997,20.3242,45.3794a10.07233,10.07233,0,0,1-9.77339,8.25c-34.63481,0-22.27151-42.6347-34.37311-55.6098l.6329-8.76031c6.996,4.28961,25.5566-5.76019,13.3378-21.08009,0,7.5337-15.6875,7.1167-15.6875-7.1172,0-19.2602,18.00591-9.2099,18.88091-4.957-.86331-7.01371-1.18951-11.4653-.03121-15.5073-9.7071,3.1304-10.6153-2.481-9.38679-4.6519,1.40629-2.5107,3.28709-5.4443,7.07029-5.4443a7.22493,7.22493,0,0,1,3.9942.7832c1.209.8271,2.0918-1.0625,1.9199.6948,1.0391-1.581.6231.3931,1.625-1.1928a32.87973,32.87973,0,0,1,4.8125-5.7291l-.1035-3.5532,2.8281,1.0366,2.7149-4.3906c-2.9297-6.0747-6.9063-3.1489-9.834-10.6806-2.4492-.6363-40.5899,3.5122-39.48439-11.7027-3.11131,0-10.47661,1.7036-5.918,7.8994-3.54491.42679-6.09961-3.5986-11.44531,7.2896,6.69531-1.2554,3.2285,6.2275,3.2285,8.3574,0,13.7964-18.3647,13.563-18.3647,7.1006-4.4258,4.3008-1.9151,13.706,4.7793,16.0234,0,0-2.5459,10.0596-8.8301,16.4395-9.3281-.3716-24.293-1.99271-32.9023-10.1314-3.7129-3.5068-6.6612-5.4184-9.17189-6.3999v-4.56c3.67629-1.7993,7.707-4.9829,11.8955-10.3037a20.08651,20.08651,0,0,0,4.56049-14.5445c-.06249-.6489-.1582-1.29-.2724-1.915-.0347-.1987-.0845-.3916-.1304-.5899-.0918-.4375-.1982-.8584-.3252-1.2905-.06049-.2095-.1177-.42281-.1836-.6304-.1416-.4335-.2978-.8491-.4673-1.2607-.0713-.1728-.1211-.3569-.20359-.5185-.23341-.55521-.49271-1.07721-.77391-1.6026-.1196-.2134-.2466-.4121-.3643-.6084-.19279-.3164-.3764-.63621-.5786-.9414-.1635-.2422-.3364-.48681-.5093-.7314-.1782-.23341-.3657-.4722-.5493-.7056-.20259-.25-.4028-.5147-.61959-.7627-.14361-.1636-.29981-.3218-.45211-.4727a20.30121,20.30121,0,0,0-1.75-1.6943c-.0513-.0444-.11189-.10111-.1724-.1475-.3438-.2939-.7114-.5751-1.0718-.8432-.0918-.0698-.1875-.1382-.2905-.21-.3858-.2719-.7808-.5381-1.1929-.792a.30113.30113,0,0,1-.0659-.0439,22.66542,22.66542,0,0,0-13.66019-3.2588c-12.0463.9595-20.9995,11.0244-19.9941,22.4824a21.12521,21.12521,0,0,0,15.9268,18.3306,23.14635,23.14635,0,0,1-6.1133,2.6431c.0952.0605.2187.1323.3545.2187.0351.0147.0757.04049.1176.06249.1158.07521.254.15231.3951.228.0351.02011.0776.04011.1123.06061.1928.0971.3916.1982.6157.3052.0351.0146.0771.0293.1123.0459.1982.0917.4004.1875.6138.27a1.93927,1.93927,0,0,0,.1928.0752,15.99131,15.99131,0,0,0,1.7593.5996c.0918.0254.189.0459.2681.0713.2612.0664.5259.1269.7998.1933.0898.0147.1816.0347.2793.0552.3457.0625.7075.123,1.0713.167.0312,0,.0625.0166.0923.0166v2.5933c-.1363.0297-.2593.0444-.3863.0644-3.9184.645-6.4643,1.8511-7.6147,5.33939-1.1436,3.50141.0312,4.76611,1.8657,7.22161-1.5498,2.7715-5.6118,3.8067-.311,9.9288-.3858,2.3125.103,5.9941,3.4682,7.1113a18.85871,18.85871,0,0,0,2.9781.73729l-.0039,45.896a12.47205,12.47205,0,0,0-5.9278,6.06441s-2.6943-5.98241-2.5161,5.8672c3.0606-2.375,1.8564,2.75,1.8564,2.75-4.1684,5.40039,1.1265,5.10739,1.1265,5.10739,3.5899-3.58589,2.8584,1.625,2.8584,1.625,0,6.35551,2.5806,8.84181,2.6026,8.85161V330.9395l-3.0494.0097.0293,9.6485,5.3321-.0098a7.43161,7.43161,0,0,0-4.6778,7.4629,7.77415,7.77415,0,0,0,8.4956,6.8418,7.5945,7.5945,0,0,0,7.17389-8.084,7.50235,7.50235,0,0,0-4.69829-6.2402l4.92039-.0137-.02-9.6485-2.93359.0118.0054-31.02349a7.25227,7.25227,0,0,0,1.96869.7168,7.33667,7.33667,0,0,0,.8526.1114,2.86092,2.86092,0,0,0,.38621.02529,8.28832,8.28832,0,0,1,1.647-6.78119,13.19359,13.19359,0,0,1,5.11859-4.3867c6.1573-3.0879,14.5591-2.3067,17.0699,2.7207,15.9111-4.1953,29.5854-20.1856,29.5854-20.1856l7.832,13.3301c-16.60589,5.5508-52.7744,36.99419-27.667,47.88279-.0092,3.1699-.4335,26.6973-15.52,24.8281-21.72559-2.6757-27.144,6.3125-22.97169,16.418-1.9609,8.5195,4.60059,11.4785,4.60059,11.4785-.9853-4.9218,1.3824-9,10.3609-8.9492-.0459,8.9805,5.7529,10.5977,5.7529,10.5977.0405-7.6895,5.3838-10.5371,10.1313-10.5157-.0351,6.336,7.3262,8.7442,7.3262,8.7442s-1.8657-7.3008,6.4551-8.7442c21.0649-3.6699,1.2812-25.3339,33.3149-31.3027,0,0-15.95109-2.4062-15.95109-11.125,0-7.9355,14.43939-13.3652,19.41009-13.3652,10.1953,19.4785,21.2696,19.6328,24.17391,19.7734,4.51359,5.043,3.00189,22.041-3.51571,21.707-23.86129-1.2812-22.98829,13.2344-20.3144,16.2032a11.00777,11.00777,0,0,0,4.07811,8.8867c0-6.0391,5.74609-7.7383,13.11519-7.3379-.3867,7.377,4.3125,8.4785,4.3125,8.4785.1289-7.4238,5.6211-8.6816,9.5235-8.4785-.28519,5.2031,4.8789,6.7363,4.8789,6.7363s-.5078-6.6054,6.4453-6.6054c13.1894-.0098-5.9649-28.2735,19.7754-56.2227-22.6113,10.4648-34.6387-15.6973-34.6387-20.7168,11.6211,13.5977,49.2988,16.3145,49.2988-6.916,0-22.19341-24.3906-30.4609-12.9804-38.9492,6.6367-4.9356,19.6914,5.0351,12.2207,15.334,10.7031-3.9747,16.6699-14.3438,13.3945-23.0328m-144.521.7002c-8.5244,5.0122-14.2388,11.3521-22.0102,14.1275a7.29819,7.29819,0,0,1-2.939.4785v-43.3159a49.11864,49.11864,0,0,1,13.64939,3.5068c6.1865,3.37649,6.1865,10.35349-1.6211,12.0078,4.9351,9.4492,22.0303,4.8228,25.7559-2.873,1.8252-.1616,3.4375,3.09569,4.955,6.1758C238.09129,242.30661,233.18209,244.78271,222.69969,250.95261Zm95.4097-71.80761c-.9375,1.272-1.8633,2.53661-2.6719,3.62111a11.2193,11.2193,0,0,0,20.8086-6.78611c-.0332-.22409-.0645-.42629-.0938-.645-.6601,3.19231-4.4218,5.89451-9.207,6.33741A11.45553,11.45553,0,0,1,318.10939,179.145Z" transform="translate(-15.9971 -18.81351)" fill="#dadada"/><path d="M180.3853,153.07811c0,.00589-.0147.0225-.0147.0371h-.0039c.0957-.2299.1968-.458.3145-.6821a5.45417,5.45417,0,0,0-.2959.645m.393,181.67969c.0093-.0058.0259-.0058.0293-.0176h-.0034C180.7969,334.752,180.7876,334.752,180.7783,334.7578Zm-.27-200.17189h0ZM177.2495,333.6914l5.332-.0059a7.51117,7.51117,0,0,0-1.7739,1.0547,4.68567,4.68567,0,0,1,1.6875-.3261,4.83987,4.83987,0,1,1-4.5893,6.2949v.4375a7.74286,7.74286,0,0,0,8.4951,6.832,7.60243,7.60243,0,0,0,7.1811-8.0742,7.52566,7.52566,0,0,0-4.7016-6.2324l4.9165-.0196-.022-9.6503-2.9336.0156V292.99411a7.48077,7.48077,0,0,1-3.8833-8.0586,8.26427,8.26427,0,0,1,4.5767,1.23049c-1.6949,3.73051,2.5215,7.67771,2.5215,7.67771a8.27564,8.27564,0,0,1,1.6416-6.7734,13.31394,13.31394,0,0,1,5.11859-4.3945c6.16461-3.0899,14.5625-2.3086,17.0732,2.7168,15.9117-4.1875,29.5865-20.1875,29.5865-20.1875l7.8364,13.3222c18.3672,0,11.9727-13.7539,10.7754-14.9531,4.2266,0,10.1738,3.1113,10.1738,10,0,16.916-49.1763,19.3262-49.1763,39.85939,0,8.6211,8.545,11.9004,8.545,11.9004,0,18.7207-12.8555,29.8418-21.6485,29.8418-14.0605,0-24.82759-2.8477-24.82759,12.4844h4.9019c-4.6573,4.6562-.3106,11.4863-.3106,11.4863-.9814-4.916,1.3931-8.9863,10.37009-8.9434h5.6006c-3.5586,3.5567-1.48,8.9571.15771,10.6055.03129-7.6992,5.36919-10.5449,10.12209-10.5156h4.0654c-1.1064,1.0898.6709,6.1523,3.2647,8.7363,0,0-1.875-7.293,6.4551-8.7363,21.0566-3.67,1.27-25.334,33.3046-31.3145,0,0-15.9414-2.3984-15.9414-11.1269,0-7.9239,14.4317-13.3633,19.3946-13.3633a31.21528,31.21528,0,0,1,10.8281.2656c1.2969,12.5762,15.7344,11.9648,18.88081,11.9648,12.24809,12.25-3.11521,31.9141-3.11521,31.9141-18.7969,0-26.2383,2.5938-26.2383,13.541h3.5567c-1.99419,2.0039-.8633,7.5137.5097,8.8887,0-6.043,5.7559-7.7324,13.125-7.3418h3.875c-1.8906,1.8887-1.5566,6.4844.4454,8.4785.1113-7.4238,5.6113-8.6836,9.5175-8.4785h3.2305c-1.209,1.2207,0,5.0918,1.6582,6.75,0,0-.5098-6.6094,6.43751-6.6172,13.19339,0-5.97071-28.2734,19.78319-56.2226-22.6094,10.4707-34.6484-15.69929-34.6484-20.72069,11.623,13.60349,49.3086,16.31829,49.3086-6.9063,0-18.7383-17.3829-27.54491-15.94339-34.9434a11.091,11.091,0,1,1,15.18359,11.2911c.0078,0,.0078-.0118.0078-.0118-.0078.0118-.02339.0235-.02339.043,10.69919-3.9687,16.67379-14.34181,13.41009-23.02881-3.2929-8.69379-14.5957-12.48-25.2734-8.44919a23.60617,23.60617,0,0,0-10.5938,7.793c7.043-20.1353,35.78711-24.4014,35.78711-43.1416,0-31.399-44.59171-22.6001-38.10351.0092a8.0564,8.0564,0,0,1,.0606-1.0019c1.1367-12.7798,23.9824-15.3916,23.9824,1.2666,0,14.2334-29.2578,22.122-29.2578,41.2705,0,19.667,21.6152,24.5869,21.6152,45.2822,0,2.4649-1.3027,13.0781-15.6601,13.0781-13.8555,0-20.5137-7.7441-24.2969-17.8496h0c-7.0566-13.6328-4.46489-34.9135-12.4121-43.4238l.6308-8.7524c7,4.2954,25.56841-5.7642,13.3711-21.084,0,7.5415-15.7011,7.1147-15.7011-7.1133,0-19.2603,17.9961-9.21,18.8711-4.9609-.8653-7.0098-1.2032-11.4727-.0215-15.4996-9.7168,3.1206-10.6114-2.48531-9.4024-4.6616,1.4219-2.5161,3.3008-5.4438,7.07621-5.4438,5.457,0,5.11129,2.0034,4.82419,4.8247,2.084-3.1524,2.67581-5.5215,7.5274-10.2637l-.10159-3.562,2.81449,1.0459,2.7363-4.3965c-2.92579-6.0747-6.9043-3.1372-9.84379-10.67531-2.43751-.63959-34.50581-3.59859-33.39651-18.81929-2.8378,0-10.56249,9.7856-5.3359,15.022h-6.6582c-3.5605.4209-11.8711-2.064-17.2036,8.8188,13.1313-13.1289,21.6548,18.1929-2.5313,18.1929v-.0039h0c-3.5693.0092-6.6298-1.47951-6.8374-3.9956-2.4096,10.5722,12.8257,13.8623,12.8257,13.8623,0,3.1411-7.63179,20.1445-11.34079,23.8501,2.5,2.5014,3.27729,17.5986-8.28171,17.5986,4.1684-11.2705-8.09129-20.8208-19.9976-27.1382h.0161a34.23937,34.23937,0,0,1-6.1113-3.0161,129.69865,129.69865,0,0,0-13.252-5.2197v-8.8355c3.6763-1.8032,7.70709-4.9868,11.8955-10.3076a20.0387,20.0387,0,0,0,4.55469-14.5444,15.85529,15.85529,0,0,0-.2758-1.917c-.0293-.1983-.0752-.3858-.1172-.5845-.09569-.4375-.20269-.8691-.3291-1.29-.0572-.2154-.1177-.4175-.1934-.6304-.1377-.4341-.2959-.8584-.4575-1.27-.0718-.1748-.1323-.3423-.2041-.5147-.2388-.5444-.5015-1.0791-.7774-1.59181-.1103-.21869-.2446-.41549-.3603-.625-.19289-.31439-.3804-.625-.5806-.93009-.1675-.2442-.3344-.4942-.5127-.73691-.1767-.23339-.355-.47259-.5444-.69669-.20219-.2647-.4063-.524-.6245-.772-.1416-.1636-.2944-.3218-.4468-.478a20.40516,20.40516,0,0,0-1.748-1.6778c-.0625-.0498-.1138-.1176-.1748-.1621-.3453-.29-.7056-.5698-1.0767-.8345-.0977-.06391-.1895-.14691-.2852-.2128-.3916-.2793-.78119-.5352-1.19479-.7925-.0239-.0108-.0493-.0313-.0718-.0401a22.62076,22.62076,0,0,0-13.6582-3.2646,24.49211,24.49211,0,0,0-3.1504.498c-6.9345,2.6578-11.9819,10.7764-11.9819,20.3838,0,9.0542,4.4888,16.7754,10.8023,19.856.0864.0239.1782.0586.268.081a23.18788,23.18788,0,0,1-6.1206,2.6431c.0977.0625.2246.1323.3623.2241a1.163,1.163,0,0,1,.1123.0572c.1211.0698.2481.1411.4004.2221a.75535.75535,0,0,0,.1143.0552c.1802.0957.3896.2095.6084.3159a.37845.37845,0,0,1,.1118.0518c.1914.0898.397.17089.6196.2627.0606.0258.1177.0517.1836.0771a17.67774,17.67774,0,0,0,1.77.59909c.0904.02051.1768.04591.2686.07181.2534.0664.5181.127.792.1841.0918.0254.1875.04.2851.0605.3452.066.7002.1265,1.0733.1709a.14916.14916,0,0,1,.081.022,20.6864,20.6864,0,0,0,5.0122-.38231v5.12451c-.4121,0-4.0219-1.1636-5.0122-2.1543-.1216.0186-.2539.0405-.3862.0664-3.9092.6397-6.457,1.8433-7.6055,5.33739-1.1435,3.50151.0313,4.76611,1.8653,7.22171-1.5606,2.7607-5.6114,3.8027-.3199,9.9287-.3764,2.30659.107,5.99759,3.4683,7.1167a19.56635,19.56635,0,0,0,2.978.7315c1.9922,0,5.0122,1.6635,5.0122,5.7993v39.4423c1.814.1055,3.7823.3497,5.5708.504v-43.3208a49.49641,49.49641,0,0,1,13.64359,3.5029,1.73818,1.73818,0,0,1,.1894.11569l-.0112-.00929a10.58951,10.58951,0,0,1,1.7222.36429c4.1538,1.27731,6.7402,4.88181,5.76951,8.07421-.97021,3.1856-5.13911,4.7383-9.28561,3.4649,4.9258,9.4565,22.0307,4.83,25.7563-2.8658,1.8159-.1616,3.4317,3.0972,4.9517,6.1724,0,0,4.2842,1.6411,14.8935,1.6411,0,0-42.9526,27.4229-55.37589,27.4229-5.3081,0-17.0806,0-17.0806,4.0136-3.2349,0-7.8999,5.4981-7.8999,8.64069a9.96368,9.96368,0,0,1,5.5508-2.38679,9.35241,9.35241,0,0,1,4.0766.7793c-.9555.9453-5.2417,5.7813-5.2417,9.5371,3.5894-3.5937,5.1553-3.58,5.1553-3.58s3.7515-.4844,5.0879.8613c-.9043.8984-2.4849,4.1504-2.4849,7.99609,0,0,2.2256-4.29689,5.0122-4.29689V326.0176c0,1.2597-5.6889,2.4687-8.0322,2.4687m1.7495-119.53219c-1.0586.04-1.562-1.3364-1.5713-1.8345-.0258-.5039.3711-1.9062,1.4283-1.9482,2.5161-.08641,7.5488,1.1211,7.5688,1.6172C186.4448,207.28121,181.5137,208.86381,178.999,208.95411Zm-1.6225-6.8047c-1.4595-.103-1.941-2.0752-1.8916-2.7681.0459-.6796.8144-2.5659,2.2719-2.4589,3.4829.2607,10.2339,2.6889,10.1768,3.3745C187.8896,200.99371,180.854,202.40671,177.3765,202.14941Zm-.5996-8.7192c-1.5455-.4063-1.6724-2.6177-1.4849-3.3491.1929-.7276,1.3877-2.5933,2.939-2.191,3.6816.96489,10.4511,4.9244,10.2578,5.6504C188.3013,194.26811,180.4624,194.395,176.7769,193.43021Zm11.4067-24.5669a10.073,10.073,0,0,0,.1069-5.57131c-.0664,0-.1323.00391-.1987.00391a8.0204,8.0204,0,0,1-8.021-8.0156,4.88341,4.88341,0,0,1,.2959-2.1651h.0039a.062.062,0,0,1,.0147-.0371,8.01462,8.01462,0,0,1,15.7241,2.2022C196.1094,160.39361,192.5103,165.10061,188.1836,168.86331Z" transform="translate(-15.9971 -18.81351)" fill="#153d8a"/><path d="M308.541,175.86771a11.21709,11.21709,0,0,0,20.80279-6.7915c-.0235-.2183-.0625-.4283-.09179-.647-.65431,3.1875-4.43361,5.8984-9.209,6.3413a11.4649,11.4649,0,0,1-8.84181-2.5273c-.9317,1.27579-1.86719,2.54-2.66019,3.6245" transform="translate(-15.9971 -18.81351)" fill="#e30613"/><path d="M293.56639,155.07081l3.8731.2041L295.5,157.93261s-2.58591.8179-1.93361-2.8618m-9.2402,0h5.5801s-.2012,4.5029,3.873,4.9058l-.8652,1.4336S281.96479,158.54831,284.32619,155.07081Z" transform="translate(-15.9971 -18.81351)" fill="#fff"/><path d="M188.4888,193.54051c.1933-.726-6.5762-4.68551-10.2578-5.6504-1.5513-.4023-2.7461,1.4634-2.939,2.191-.1875.7314-.0606,2.9428,1.4849,3.3491,3.6855.96479,11.5244.8379,11.7119.1103m-.5552,6.7564c.0571-.6856-6.6939-3.1138-10.1768-3.3745-1.4575-.107-2.226,1.7793-2.2719,2.4589-.0494.6929.4321,2.6651,1.8916,2.7681C180.854,202.40671,187.8896,200.99371,187.9336,200.29691Zm-7.6641-20.3726v2.5879c.9903.9907,4.6001,2.1543,5.0122,2.1543V179.542A20.6864,20.6864,0,0,1,180.2695,179.92431Zm-1.4135,25.2471c-1.0572.042-1.4541,1.4443-1.4283,1.9482.0093.4981.5127,1.8745,1.5713,1.8345,2.5147-.0903,7.4458-1.6729,7.4258-2.1655C186.4048,206.29251,181.3721,205.085,178.856,205.17141Zm-5.1797,68.3188a9.29352,9.29352,0,0,0-1.1651,10.3164c0-3.7558,4.2862-8.5918,5.2417-9.5371A9.35241,9.35241,0,0,0,173.6763,273.49021Zm13.2817,11.4453a7.48077,7.48077,0,0,0,3.8833,8.0586,7.39893,7.39893,0,0,0,1.9668.7032,7.71373,7.71373,0,0,0,.8657.13669c.127.00191.2554.00391.3824.00971,0,0-4.2164-3.9472-2.5215-7.67771A8.26427,8.26427,0,0,0,186.958,284.93551Zm-7.6186-110.1098c-6.3135-3.0806-10.8023-10.8018-10.8023-19.856,0-9.6074,5.0474-17.726,11.9819-20.3838-10.4121,2.3072-17.7568,11.5596-16.8378,21.9903A21.10484,21.10484,0,0,0,179.3394,174.82571Zm67.02339-22.1592c6.6997-1.2607,8.9731,4.6963,8.9731,6.8281,0,8.0762-6.2885,11.3296-11.5044,11.3609v.0039C268.01759,170.85941,259.49409,139.53761,246.36279,152.66651Zm-16.1655,69.5044c11.559,0,10.78171-15.0972,8.28171-17.5986,3.709-3.7056,11.34079-20.709,11.34079-23.8501,0,0-15.25579-3.2901-12.8203-13.877a.02555.02555,0,0,1-.0054-.0205l-.20409-.0366c-4.15771,4.3872-1.63031,13.5371,4.96629,15.8198,0,0-2.5459,10.0596-8.83,16.439-6.2564-.2427-15.0254-1.06591-22.7266-4.0142C222.106,201.35011,234.36569,210.90041,230.19729,222.17091Zm-45.15479-72.4873a5.37593,5.37593,0,0,1,5.8764,4.7363,5.27,5.27,0,0,1-4.9721,5.5913,5.35619,5.35619,0,0,1-5.876-4.7309,8.0204,8.0204,0,0,0,8.021,8.0156c.0664,0,.1323-.00391.1987-.00391a10.073,10.073,0,0,1-.1069,5.57131c4.3267-3.7627,7.9258-8.4697,7.9258-13.583a8.01925,8.01925,0,0,0-15.7427-2.1651A5.41975,5.41975,0,0,1,185.0425,149.68361Zm85.18209-5.8359c-5.22659-5.2364,2.4981-15.022,5.3359-15.022-3.10349,0-16.56249,8.8115-11.9941,15.022Zm-67.3442,87.0044c4.1465,1.2734,8.3154-.2793,9.28561-3.4649.97069-3.1924-1.61571-6.7969-5.76951-8.07421a10.58951,10.58951,0,0,0-1.7222-.36429C210.67189,222.36961,210.60209,229.231,202.88039,230.85211Zm-12.02789-44.0552a129.69865,129.69865,0,0,1,13.252,5.2197,25.56889,25.56889,0,0,1-4.082-3.10061c-3.711-3.50679-6.66259-5.41839-9.17-6.38909Zm2.2535,76.4258c12.42329,0,55.37589-27.4229,55.37589-27.4229-10.6093,0-14.8935-1.6411-14.8935-1.6411-2.395,1.248-7.3101,3.71429-17.7866,9.8848-8.5249,5.01749-14.2393,11.3627-22.01219,14.1323a7.2641,7.2641,0,0,1-2.9371.4844c-1.7885-.1543-3.7568-.3985-5.5708-.504v-39.4423c0-4.1358-3.02-5.7993-5.0122-5.7993v45.8979a12.41292,12.41292,0,0,0-5.9223,6.06449s-6.4053-.85549-6.2217,11c0-3.14259,4.665-8.64069,7.8999-8.64069C176.0254,263.22271,187.7979,263.22271,193.106,263.22271Zm107.142,63.496c-3.14641,0-17.58391.6114-18.88081-11.9648a31.21528,31.21528,0,0,0-10.8281-.2656c10.207,19.4804,21.2871,19.6347,24.1855,19.7851,4.5117,5.0332,3,22.0293-3.51759,21.6856-23.86131-1.2695-22.98631,13.2461-20.31251,16.2148,0-10.9472,7.4414-13.541,26.2383-13.541C297.13279,358.6328,312.49609,338.9687,300.248,326.7187Zm4.90629,47.002h-3.2305c-.2734,5.2148,4.8887,6.75,4.8887,6.75C305.15429,378.8125,303.94529,374.9414,305.15429,373.7207Zm-30.1934,7.3418c-1.373-1.375-2.50389-6.8848-.5097-8.8887h-3.5567A11.01754,11.01754,0,0,0,274.96089,381.0625Zm71.2266-181.23239c0-16.6636-22.8516-14.0464-23.9824-1.25,1.0078-9.3794,16.2773-10.7632,16.2773.9853,0,12.1402-28.4746,20.0933-28.4746,40.6109,0,22.6089,22.6074,24.70069,20.3203,45.3706a10.06413,10.06413,0,0,1-9.7715,8.2539c-11.9023,0-18.2695-5.05081-21.9687-12.1895,3.7832,10.1055,10.4414,17.8496,24.2969,17.8496,14.3574,0,15.6601-10.6132,15.6601-13.0781,0-20.6953-21.6152-25.6152-21.6152-45.2822C316.92969,221.95211,346.18749,214.06351,346.18749,199.83011Zm-168.521,80.3965c0,6.3808,2.603,8.85739,2.603,8.85739,0-3.84569,1.5806-7.09769,2.4849-7.99609C181.418,279.74221,177.6665,280.22661,177.6665,280.22661Zm165.13429-35.2681a11.08841,11.08841,0,0,0-11.05079,10.102,6.77828,6.77828,0,0,1,2.93949-4.0019c6.6484-4.9399,19.6718,5.0098,12.2441,15.293a11.09811,11.09811,0,0,0-4.1328-21.3931ZM291.96089,373.7207h-3.875c-.3964,7.3711,4.3204,8.4785,4.3204,8.4785C290.40429,380.2051,290.07029,375.6094,291.96089,373.7207ZM182.4951,334.4141a4.704,4.704,0,0,0-1.6909.3261,7.23675,7.23675,0,0,0-2.8984,5.9688,4.82841,4.82841,0,1,0,4.5893-6.2949Zm27.22119,35.789h-5.6006c-.0478,8.9766,5.75831,10.6055,5.75831,10.6055C208.23629,379.1602,206.15769,373.7598,209.71629,370.2031Zm17.3691-56.7695c0-20.53319,49.1763-22.94339,49.1763-39.85939,0-6.8887-5.9472-10-10.1738-10,1.1973,1.1992,7.5918,14.9531-10.7754,14.9531-16.6094,5.5586-52.7773,36.99809-27.6724,47.89849-.0107,3.1601-.437,26.6875-15.5146,24.8379-21.72119-2.6875-27.13969,6.291-22.97119,16.3965,0-15.3321,10.76709-12.4844,24.82759-12.4844,8.793,0,21.6485-11.1211,21.6485-29.8418C235.63039,325.334,227.08539,322.0547,227.08539,313.4336Zm-41.80369,12.584V284.78711c-2.7866,0-5.0122,4.29689-5.0122,4.29689v34.9512l-3.0459.0097.0259,4.4414C179.5928,328.4863,185.2817,327.2773,185.2817,326.0176Zm8.4639,53.1289s-4.3467-6.8301.3106-11.4863h-4.9019C187.1875,376.1914,193.7456,379.1465,193.7456,379.1465Zm30.31589-8.8535h-4.0654c-.0313,6.3359,7.3301,8.7363,7.3301,8.7363C224.73239,376.4453,222.95509,371.3828,224.06149,370.293Z" transform="translate(-15.9971 -18.81351)" fill="#737db7"/><line x1="407.90519" y1="190.5429" x2="407.90519" y2="190.5429" fill="#fff"/><path d="M87.3213,301.84181l-.2705-.832-.1157-.8672c-.397-2.9649-1.1138-8.4883-5.378-9.47461a5.78956,5.78956,0,0,0-3.5752.38671,5.78192,5.78192,0,0,0-.1098-3.5879c-1.5718-4.0879-7.1372-4.0371-10.1275-3.9981h-.8789L66,283.30861c-2.937-.541-8.416-1.5645-10.6641,2.18939a5.7546,5.7546,0,0,0-.7407,3.51181,5.7523,5.7523,0,0,0-3.4424-1.0059c-4.3764.2344-6.0488,5.543-6.9443,8.4023l-.2734.8301-.4063.7715c-1.4336,2.6328-4.0933,7.51369-1.2207,10.82029a5.732,5.732,0,0,0,3.1172,1.7871,5.72857,5.72857,0,0,0-2.0088,2.9805c-1.1431,4.2207,3.395,7.4512,5.8247,9.1797l.7129.5273.6143.6211c2.0586,2.1778,5.8852,6.211,9.914,4.5039a5.79858,5.79858,0,0,0,2.6577-2.4101,5.8615,5.8615,0,0,0,2.2056,2.8379c3.6704,2.3769,8.1387-.9336,10.543-2.7032l.7114-.5214.7886-.3868c2.6997-1.2929,7.7304-3.6796,7.3501-8.041a5.74758,5.74758,0,0,0-1.4649-3.2734,5.72418,5.72418,0,0,0,3.3653-1.2207c3.4077-2.7559,1.6337-8.0313.6821-10.86719" transform="translate(-15.9971 -18.81351)" fill="#fff"/><path d="M68.1509,305.3789c24.4819,14.4688,16.9424-1.4434,16.4038-3.7949-.542-2.34569-.7481-19.94729-16.4038,3.7949" transform="translate(-15.9971 -18.81351)" fill="#e30613"/><path d="M66.6123,309c-6.1958,27.7441,6.6074,15.666,8.6719,14.4355,2.0639-1.2402,18.7402-6.8808-8.6719-14.4355" transform="translate(-15.9971 -18.81351)" fill="#e30613"/><path d="M62.6807,308.6641c-28.3125,2.6718-12.8589,11.1211-11.0445,12.6992,1.8213,1.5722,12.3277,15.6972,11.0445-12.6992" transform="translate(-15.9971 -18.81351)" fill="#e30613"/><path d="M61.793,304.8105c-11.3003-26.09369-14.5591-8.791-15.5-6.56829-.9409,2.2051-11.1275,16.57229,15.5,6.56829" transform="translate(-15.9971 -18.81351)" fill="#e30613"/><path d="M466.18549,298.00781l-.4062-.7715-.27729-.8301c-.89461-2.8593-2.56841-8.1679-6.93171-8.4023a5.79885,5.79885,0,0,0-3.4492.99809,5.85646,5.85646,0,0,0-.7383-3.504c-2.25779-3.75389-7.7285-2.73039-10.666-2.18939l-.875.1601h-.875c-2.9785-.039-8.54879-.0898-10.1152,3.9981a5.736,5.736,0,0,0-.1231,3.5879,5.74333,5.74333,0,0,0-3.5664-.38671c-4.2598.98631-4.9922,6.50971-5.36909,9.47461l-.13091.8672-.2637.832c-.957,2.83589-2.7246,8.11129.6817,10.86719a5.7031,5.7031,0,0,0,3.3652,1.2207,5.75011,5.75011,0,0,0-1.4648,3.2734c-.377,4.3614,4.64451,6.7481,7.3496,8.041l.7812.3868.711.5214c2.4121,1.7696,6.88471,5.0801,10.5429,2.7032a5.7503,5.7503,0,0,0,2.2071-2.8379,5.78863,5.78863,0,0,0,2.664,2.4101c4.0274,1.7071,7.8575-2.3261,9.9141-4.5039l.6191-.6211.7032-.5273c2.4375-1.7285,6.9726-4.959,5.8339-9.1797a5.76155,5.76155,0,0,0-2.01359-2.9805,5.724,5.724,0,0,0,3.11129-1.7871c2.877-3.3066.22271-8.18749-1.2188-10.82029" transform="translate(-15.9971 -18.81351)" fill="#fff"/><path d="M444.541,302.7871c-21.32031-18.80859-3.86331-16.56439-1.46291-16.77539,2.3887-.2012,19.2012-5.4512,1.46291,16.77539" transform="translate(-15.9971 -18.81351)" fill="#e30613"/><path d="M441.57229,305.3789c-24.4825,14.4688-16.9571-1.4434-16.4082-3.7949.5371-2.34569.7402-19.94729,16.4082,3.7949" transform="translate(-15.9971 -18.81351)" fill="#e30613"/><path d="M443.10549,309c6.2011,27.7441-6.60549,15.666-8.6719,14.4355-2.0645-1.2402-18.7344-6.8808,8.6719-14.4355" transform="translate(-15.9971 -18.81351)" fill="#e30613"/><path d="M447.03129,308.6641c28.3144,2.6718,12.871,11.1211,11.0488,12.6992-1.8086,1.5722-12.33009,15.6972-11.0488-12.6992" transform="translate(-15.9971 -18.81351)" fill="#e30613"/><path d="M447.91409,304.8105c11.3066-26.09369,14.5586-8.791,15.50391-6.56829.93549,2.2051,11.123,16.57229-15.50391,6.56829" transform="translate(-15.9971 -18.81351)" fill="#e30613"/><path d="M453.41409,305.625c-.0274-.2266-.0996-.4297-.1309-.6504,2.2754-1.6699,4.7285-3.459,4.7285-3.459l-.2363-.5293s-2.8652.5-5.6133.9785a8.49224,8.49224,0,0,0-6.4219-4.0546c-.8554-2.5704-1.7089-5.1875-1.7089-5.1875l-.5762.0488s-.3867,2.72649-.7774,5.4004a8.43777,8.43777,0,0,0-4.2675,2.7226,8.91153,8.91153,0,0,0-1.3829,2.39069c-2.7675,0-5.69329.0097-5.69329.0097l-.12311.5703s2.7246,1.3301,5.24611,2.5625c.00979.2305-.01951.4571,0,.6895a8.41236,8.41236,0,0,0,2.90819,5.664c-.8847,2.7657-1.8808,5.8575-1.8808,5.8575l.4883.2949s2.2968-2.3789,4.3418-4.4785a8.514,8.514,0,0,0,6.6054-.5664c2.37111,1.707,5.0449,3.6406,5.0449,3.6406l.4356-.377s-1.5137-2.8652-2.8672-5.4296a8.48476,8.48476,0,0,0,1.8809-6.0977" transform="translate(-15.9971 -18.81351)" fill="#fff"/><path d="M444.498,301.36521a4.90181,4.90181,0,0,0-3.414,1.77539,4.95683,4.95683,0,0,0-1.15821,3.6621,5.02982,5.02982,0,1,0,4.57221-5.43749" transform="translate(-15.9971 -18.81351)" fill="#e30613"/><path d="M65.1768,302.7871c21.3266-18.80859,3.8598-16.56439,1.4668-16.77539-2.4004-.2012-19.211-5.4512-1.4668,16.77539" transform="translate(-15.9971 -18.81351)" fill="#e30613"/><path d="M73.251,306.4277c2.5366-1.2324,5.2514-2.5625,5.2514-2.5625l-.1269-.5703s-2.919-.0097-5.6943-.0097a8.56226,8.56226,0,0,0-1.3785-2.39069,8.43488,8.43488,0,0,0-4.2695-2.7226c-.3804-2.67391-.7666-5.4004-.7666-5.4004l-.5864-.0488s-.8491,2.6171-1.6909,5.1875a8.49264,8.49264,0,0,0-6.4405,4.0546c-2.7368-.4785-5.6186-.9785-5.6186-.9785l-.2222.5293s2.4497,1.78909,4.7217,3.459c-.0366.2207-.103.4238-.127.6504a8.48336,8.48336,0,0,0,1.8858,6.0977c-1.3618,2.5644-2.8784,5.4296-2.8784,5.4296l.4487.377s2.6689-1.9336,5.0381-3.6406a8.61659,8.61659,0,0,0,3.2475.9531,8.36635,8.36635,0,0,0,3.3599-.3867c2.0386,2.0996,4.3325,4.4785,4.3325,4.4785l.5034-.2949s-.998-3.0918-1.8877-5.8477a8.4812,8.4812,0,0,0,2.9078-5.6738,6.14266,6.14266,0,0,0-.0093-.6895" transform="translate(-15.9971 -18.81351)" fill="#fff"/><path d="M68.6357,303.1406a4.90114,4.90114,0,0,0-3.4165-1.77539,5.02545,5.02545,0,1,0,3.4165,1.77539" transform="translate(-15.9971 -18.81351)" fill="#e30613"/><path d="M68.2939,184.47361A21.96345,21.96345,0,1,0,86.1118,209.915a21.99187,21.99187,0,0,0-17.8179-25.44139" transform="translate(-15.9971 -18.81351)" fill="#fff"/><path d="M73.2656,201.08541c-.1928-.1176-.5293-.33641-.9355-.6049-1.8013-1.1944-5.3321-3.5288-5.4292-3.5987-.4888-.3364-.9649-.6562-1.4336-.9721-1.5698-1.0518-2.9741-1.9668-4.294-2.7295-.5087-.2886-1.0014-.5591-1.4961-.8013a17.22957,17.22957,0,0,0-6.4863-1.9082,19.50192,19.50192,0,0,0-4.707,4.8506c5.4609,1.9722,10.793,5.1299,21.8945,12.0264.6358-1.4668,2.7608-5.9869,2.8872-6.2623" transform="translate(-15.9971 -18.81351)" fill="#e30613"/><path d="M68.147,212.85791c.2221-.5532,1.1982-3.0234,1.5971-3.9736-11.3774-7.0674-16.6596-10.1939-22.1333-12.1294a19.151,19.151,0,0,0-1.9004,4.957C48.835,206,57.207,210.21481,68.147,212.85791" transform="translate(-15.9971 -18.81351)" fill="#e30613"/><path d="M66.9155,194.89841c4.2603-2.5195,9.1001-1.8339,12.8365-.5586a19.3482,19.3482,0,0,0-5.0416-4.5952c-3.5288-.7021-8.4033-.812-12.2832,2.272,1.4097.8291,2.8672,1.7959,4.4883,2.8818" transform="translate(-15.9971 -18.81351)" fill="#e30613"/><path d="M49.9175,215.25291c.5698.39109,1.1543.7627,1.7754,1.1118a28.68934,28.68934,0,0,0,4.0146,1.8047c.5952.22459,1.2002.4341,1.8101.6309,2.1343.7021,7.0307,1.9736,7.3965,2.0586.0752-.1875,1.9096-4.7256,2.6059-6.4497-8.4824-2.1045-17.7695-5.78621-22.1826-10.57421a19.10478,19.10478,0,0,0,.3052,6.47161,12.36683,12.36683,0,0,0,4.2749,4.9463" transform="translate(-15.9971 -18.81351)" fill="#e30613"/><path d="M65.1987,222.63231l-1.77-.456c-1.6411-.417-3.4204-.8838-5.229-1.439a12.31052,12.31052,0,0,0,3.7495,4.4795,19.26451,19.26451,0,0,0,5.8208-.1123,20.656,20.656,0,0,1-2.5713-2.4722" transform="translate(-15.9971 -18.81351)" fill="#e30613"/><path d="M82.9395,200.50241a19.33846,19.33846,0,0,0-1.5972-3.7822c-3.3438-1.4907-8.4365-2.94821-12.8848-.772l6.1353,4.05079a31.40734,31.40734,0,0,1,3.5327-.123c.5884.00931,1.1343.04051,1.6562.09181a19.92406,19.92406,0,0,1,3.1578.5346" transform="translate(-15.9971 -18.81351)" fill="#e30613"/><path d="M79.7983,201.624c-.1787,10.08161-4.9316,17.85791-9.0283,22.72321a19.22761,19.22761,0,0,0,12.6323-22.0103,18.23213,18.23213,0,0,0-3.604-.71291" transform="translate(-15.9971 -18.81351)" fill="#e30613"/><path d="M60.894,191.16211a14.33515,14.33515,0,0,1,9.3887-3.4556,17.75294,17.75294,0,0,0-2.4463-.6157,19.1884,19.1884,0,0,0-12.5263,2.0493,20.52339,20.52339,0,0,1,5.5839,2.022" transform="translate(-15.9971 -18.81351)" fill="#e30613"/><path d="M74.8262,201.63481c-1.4595,3.0385-2.3174,4.9004-3.0288,6.59319-.2188.51271-.4322,1.01081-.647,1.52931-.3403.8491-1.3877,3.4883-1.3877,3.4883l-.625,1.5493-2.7095,6.711a11.52624,11.52624,0,0,0,2.542,2.4296c4.0254-4.5913,9.0342-12.3071,9.1865-22.4072a27.00706,27.00706,0,0,0-3.3305.1065" transform="translate(-15.9971 -18.81351)" fill="#e30613"/><path d="M56.1704,220.07031a35.36608,35.36608,0,0,1-3.9736-1.6157,18.01853,18.01853,0,0,0,1.8525,3.8945,19.22288,19.22288,0,0,0,4.7236,2.1802,12.30136,12.30136,0,0,1-2.6025-4.459" transform="translate(-15.9971 -18.81351)" fill="#e30613"/><path d="M50.208,217.36821a19.11241,19.11241,0,0,1-2.5566-1.8306,19.38083,19.38083,0,0,0,3.3232,4.3452,15.79936,15.79936,0,0,1-.7666-2.5146" transform="translate(-15.9971 -18.81351)" fill="#e30613"/><path d="M421.22659,209.915a21.96335,21.96335,0,1,0,17.8125-25.44139,21.98729,21.98729,0,0,0-17.8125,25.44139" transform="translate(-15.9971 -18.81351)" fill="#fff"/><path d="M434.06839,201.08541c.1914-.1176.5293-.33641.9453-.6049,1.8008-1.1944,5.3281-3.5288,5.4179-3.5987.5-.3364.9747-.6562,1.44541-.9721,1.55269-1.0518,2.96869-1.9668,4.291-2.7295.50779-.2886,1.00579-.5591,1.49219-.8013a17.23346,17.23346,0,0,1,6.4882-1.9082,19.17062,19.17062,0,0,1,4.6954,4.8506c-5.4571,1.9722-10.7735,5.1299-21.8887,12.0264-.6406-1.4668-2.7559-5.9869-2.8867-6.2623" transform="translate(-15.9971 -18.81351)" fill="#e30613"/><path d="M439.19139,212.85791c-.2226-.5532-1.209-3.0234-1.5859-3.9736,11.3574-7.0674,16.6562-10.1939,22.123-12.1294a19.3658,19.3658,0,0,1,1.9024,4.957c-3.13089,4.28809-11.502,8.5029-22.4395,11.146" transform="translate(-15.9971 -18.81351)" fill="#e30613"/><path d="M440.42379,194.89841c-4.2636-2.5195-9.0996-1.8339-12.84179-.5586a19.42736,19.42736,0,0,1,5.05279-4.5952c3.5254-.7021,8.3965-.812,12.2715,2.272-1.4004.8291-2.8672,1.7959-4.4825,2.8818" transform="translate(-15.9971 -18.81351)" fill="#e30613"/><path d="M457.41019,215.25291a19.414,19.414,0,0,1-1.7696,1.1118,28.3739,28.3739,0,0,1-4.0039,1.8047c-.5996.22459-1.209.4341-1.8203.6309-2.123.7021-7.02539,1.9736-7.3906,2.0586-.082-.1875-1.9219-4.7256-2.6035-6.4497,8.4785-2.1045,17.75971-5.78621,22.1855-10.57421a19.39431,19.39431,0,0,1-.3086,6.47161,12.3643,12.3643,0,0,1-4.289,4.9463" transform="translate(-15.9971 -18.81351)" fill="#e30613"/><path d="M442.14259,222.63231l1.7578-.456c1.6465-.417,3.4355-.8838,5.2461-1.439a12.4708,12.4708,0,0,1-3.7539,4.4795,19.21865,19.21865,0,0,1-5.8145-.1123,21.52853,21.52853,0,0,0,2.5645-2.4722" transform="translate(-15.9971 -18.81351)" fill="#e30613"/><path d="M424.39839,200.50241a18.60385,18.60385,0,0,1,1.6094-3.7822c3.334-1.4907,8.416-2.94821,12.86721-.772l-6.12891,4.05079a31.47651,31.47651,0,0,0-3.53709-.123c-.58011.00931-1.12891.04051-1.65821.09181a19.9755,19.9755,0,0,0-3.1524.5346" transform="translate(-15.9971 -18.81351)" fill="#e30613"/><path d="M427.541,201.624c.17379,10.08161,4.93949,17.85791,9.03909,22.72321a19.29107,19.29107,0,0,1-12.7383-14.8897,19.0177,19.0177,0,0,1,.0996-7.1206,18.14115,18.14115,0,0,1,3.59961-.71291" transform="translate(-15.9971 -18.81351)" fill="#e30613"/><path d="M446.44919,191.16211a14.35323,14.35323,0,0,0-9.3906-3.4556,17.31842,17.31842,0,0,1,2.4473-.6157,19.16227,19.16227,0,0,1,12.5175,2.0493,20.54459,20.54459,0,0,0-5.5742,2.022" transform="translate(-15.9971 -18.81351)" fill="#e30613"/><path d="M432.51369,201.63481c1.4629,3.0385,2.3047,4.9004,3.041,6.59319.2109.51271.4141,1.01081.6289,1.52931.3457.8491,1.3926,3.4883,1.3926,3.4883l.6211,1.5493,2.7148,6.711a11.58042,11.58042,0,0,1-2.543,2.4296c-4.0234-4.5913-9.041-12.3071-9.1816-22.4072a26.939,26.939,0,0,1,3.3262.1065" transform="translate(-15.9971 -18.81351)" fill="#e30613"/><path d="M451.16989,220.07031a36.30074,36.30074,0,0,0,3.9766-1.6157,18.2103,18.2103,0,0,1-1.8633,3.8945,19.26305,19.26305,0,0,1-4.7148,2.1802,12.34647,12.34647,0,0,0,2.6015-4.459" transform="translate(-15.9971 -18.81351)" fill="#e30613"/><path d="M457.13669,217.36821a20.11389,20.11389,0,0,0,2.5508-1.8306,19.26246,19.26246,0,0,1-3.3223,4.3452,17.65034,17.65034,0,0,0,.7715-2.5146" transform="translate(-15.9971 -18.81351)" fill="#e30613"/></svg>