<svg id="f5a63c22-3541-463e-82c1-bb2806a3b747" data-name="Ebene 1" xmlns="http://www.w3.org/2000/svg" viewBox="0 0 393.72601 540.52405"><title>03</title><path d="M271.164,53.605s-53.072-.302-56.124-.319C214.081,50.389,197.398,0,197.398,0s-16.684,50.389-17.643,53.286c-3.052.017-56.13.319-56.13.319s42.759,31.437,45.218,33.245c-.926,2.908-17.038,53.48-17.038,53.48s43.113-30.957,45.592-32.737c2.479,1.78,45.592,32.737,45.592,32.737s-16.111-50.573-17.038-53.48C228.411,85.042,271.164,53.605,271.164,53.605Z" transform="translate(0 0.00002)" fill="#ae9962"/><circle cx="196.86301" cy="343.66102" r="196.86302" fill="#ae9962"/><circle cx="196.86301" cy="343.66101" r="180.77901" fill="#0055a0"/><circle cx="196.86301" cy="343.66101" r="158.702" fill="#ae9962"/><circle cx="196.863" cy="343.66101" r="151.05901"/><circle cx="196.863" cy="343.66101" r="130.244" fill="#ae9962"/></svg>