<svg id="b1e33824-0b8f-41ac-9cb6-e160b25dbb1c" data-name="Ebene 1" xmlns="http://www.w3.org/2000/svg" viewBox="0 0 393.72601 540.52405"><title>03s</title><path d="M271.164,53.605s-53.072-.302-56.124-.319C214.081,50.389,197.398,0,197.398,0s-16.684,50.389-17.643,53.286c-3.052.017-56.13.319-56.13.319s42.759,31.437,45.218,33.245c-.926,2.908-17.038,53.48-17.038,53.48s43.113-30.957,45.592-32.737c2.479,1.78,45.592,32.737,45.592,32.737s-16.111-50.573-17.038-53.48C228.411,85.042,271.164,53.605,271.164,53.605Z" transform="translate(0 0.00002)" fill="#ae9962"/><circle cx="196.86301" cy="343.66102" r="196.86302" fill="#ae9962"/><circle cx="196.86301" cy="343.66101" r="180.77901" fill="#0055a0"/><circle cx="196.86301" cy="343.66101" r="158.702" fill="#ae9962"/><circle cx="196.863" cy="343.66101" r="151.05901"/><circle cx="196.863" cy="343.66101" r="130.244" fill="#ae9962"/><path d="M204.958,343.28c.052,46.65.34,102.753,1.402,109.304,1.862,11.405,5.434,15.12,5.434,15.12H179.93s3.564-3.715,5.422-15.12c1.067-6.551,1.356-62.653,1.402-109.304h18.204Z" transform="translate(0 0.00002)" fill="#fff"/><path d="M81.817,346.211a115.05719,115.05719,0,0,1,221.835-42.867h-16.71A99.76146,99.76146,0,1,0,181.936,444.88v1.843c-.075.845-.15,1.508-.219,1.981a60.33661,60.33661,0,0,1-2.919,11.173A115.09641,115.09641,0,0,1,81.817,346.211M210,448.704c-.122-.739-.22-1.933-.341-3.533a99.81973,99.81973,0,0,0,84.846-78.495H310.09a115.13163,115.13163,0,0,1-97.074,93.481A59.751,59.751,0,0,1,210,448.704" transform="translate(0 0.00002)" fill="#fff"/><path d="M148.891,264.962h34.536v17.804H170.229v39.96h46.209v16.745H175.207l-23.154-39.74V271.302c-.001-3.32-3.162-6.34-3.162-6.34m59.534,0h33.127v22.623s-3.928-4.819-9.513-4.819H208.424V264.962Z" transform="translate(0 0.00002)" fill="#fff"/><path d="M140.247,322.235s42.014,65.988,42.014,67.364V362.088s-39.273-65.601-41.033-69.128c-1.419-2.83-5.218-13.482-6.676-17.615a94.3093,94.3093,0,0,0-14.817,16.238c1.002,1.668,2.72,4.747,2.996,6.669.392,2.741-4.951,79.049-5.671,82.446a42.78036,42.78036,0,0,1-3.763,9.848,94.18847,94.18847,0,0,0,19.794,25.257c.177-3.14.55-9.885.688-13.469C133.969,397.556,140.247,322.235,140.247,322.235Z" transform="translate(0 0.00002)" fill="#fff"/><path d="M166.977,374.432l-15.75-26.061s-.993,60.301-1.379,64.809c-.319,3.562-3.178,9.665-4.373,12.086a93.32913,93.32913,0,0,0,25.472,11.36c-1.145-3.063-3.24-8.988-3.387-11.681C167.364,421.219,166.977,374.432,166.977,374.432Z" transform="translate(0 0.00002)" fill="#fff"/><path d="M278.075,391.537a44.777,44.777,0,0,1-4.287-10.837c-.722-3.397-6.058-79.705-5.678-82.446.334-2.3,2.73-6.249,3.494-7.462a94.28363,94.28363,0,0,0-15.062-16.151c-1.215,3.452-5.424,15.312-6.922,18.321-1.766,3.527-41.021,69.128-41.021,69.128V389.6c0-1.376,42.002-67.364,42.002-67.364s6.276,75.32,6.462,80.1c.164,3.988.604,11.889.746,14.381A94.18872,94.18872,0,0,0,278.075,391.537Z" transform="translate(0 0.00002)" fill="#fff"/><path d="M204.918,249.794l-.018,69.465H186.586v-69.3a98.67308,98.67308,0,0,1,10.065-.514q4.188,0,8.267.349" transform="translate(0 0.00002)" fill="#fff"/><path d="M215.809,218.738a93.42005,93.42005,0,0,0-8.82,9.526q-5.0535-.42452-10.238-.43-5.96251,0-11.756.565a88.24481,88.24481,0,0,0-8.929-9.662h39.743Z" transform="translate(0 0.00002)" fill="#fff"/></svg>